<svg id="Layer_1" data-name="Layer 1" xmlns="http://www.w3.org/2000/svg" xmlns:xlink="http://www.w3.org/1999/xlink" viewBox="0 0 516.7 78.43"><defs><style>.cls-1,.cls-3{fill:none;}.cls-2{clip-path:url(#clip-path);}.cls-3{stroke:#404041;stroke-linecap:round;stroke-width:1.39px;}.cls-4{clip-path:url(#clip-path-2);}.cls-5{clip-path:url(#clip-path-3);}.cls-6{fill:#404041;}</style><clipPath id="clip-path"><rect class="cls-1" x="-281.97" y="173.59" width="1080" height="121.52"/></clipPath><clipPath id="clip-path-2"><polyline class="cls-1" points="798.03 -1668.89 -281.97 -1668.89 -281.97 -1115.89 798.03 -1115.89"/></clipPath><clipPath id="clip-path-3"><rect class="cls-1" x="-281.97" y="129.59" width="1080" height="121.52"/></clipPath></defs><g class="cls-2"><path class="cls-3" d="M901,68.9C772,223.82,657.57,234.48,441.67,307.07c-6.55,2.21-12.92,4.41-19.25,6.62m257.58,0C786.72,259.9,863.25,189.24,916,111.33m-1606,3.61c41.18,95.75,129.4,193.56,308.74,193.56,160.55,0,225.66-107.64,225.66-107.64s4.41,56.91,23.87,112.83M-168.07,103.9s-67.18,115-242.89,115c-117.88,0-212.54-52.47-258.84-135.46M-80.75,313.69c-33.66-35.09-45-119.88-53.21-216.1M50.37,313.69c12.71-41.84,30.14-80,82.64-80a19.19,19.19,0,0,1,11.15,3.63s8.71-109.93-1.34-109.93c-15.84,0-49.5,22.89-80.49,22.89s-41-13.17-41-13.17M-3.9,111.17c0,115.71,37,125.58,37,125.58S19.45,286.47-9,313.69M394.89,36c6.49,69.67,23.5,197.68,114.41,197.68,53.74,0,74.79-40.6,86.68-70.94,7.09-18.07,14.11-32.5,14.11-32.5M278.39,302.77c9.25-14.13,16.24-26.57,16.24-26.57s21.55,15.17,38.08,26.57m27.5,0c5-7.65,11.38-17.5,17.39-25.54,11.55-15.52,27.93-30,27.93-37.15s-61.84-49.37-67.5-49.37-46.37,71-46.37,71-48.16-44.29-55.89-44.29c-10.7,0-54.41,78.14-54.41,78.14a64.15,64.15,0,0,1,9.41,7.21"/></g><g class="cls-4"><g class="cls-5"><path class="cls-3" d="M901,24.9C772,179.82,657.57,190.48,441.67,263.07c-6.55,2.21-12.92,4.41-19.25,6.62m257.58,0C786.72,215.9,863.25,145.24,916,67.33M-690,70.94c41.18,95.75,129.4,193.56,308.74,193.56,160.55,0,225.66-107.64,225.66-107.64s4.41,56.91,23.87,112.83M-168.07,59.9s-67.18,115-242.89,115c-117.88,0-212.54-52.47-258.84-135.46M-80.75,269.69c-33.66-35.09-45-119.88-53.21-216.1M50.37,269.69c12.71-41.84,30.14-80,82.64-80a19.19,19.19,0,0,1,11.15,3.63s8.71-109.93-1.34-109.93c-15.84,0-49.5,22.89-80.49,22.89s-41-13.17-41-13.17M-3.9,67.17c0,115.71,37,125.58,37,125.58S19.45,242.47-9,269.69M394.89-8c6.49,69.67,23.5,197.68,114.41,197.68,53.74,0,74.79-40.6,86.68-70.94,7.09-18.07,14.11-32.5,14.11-32.5M278.39,258.77c9.25-14.13,16.24-26.57,16.24-26.57s21.55,15.17,38.08,26.57m27.5,0c5-7.65,11.38-17.5,17.39-25.54,11.55-15.52,27.93-30,27.93-37.15s-61.84-49.37-67.5-49.37-46.37,71-46.37,71-48.16-44.29-55.89-44.29c-10.7,0-54.41,78.14-54.41,78.14a64.15,64.15,0,0,1,9.41,7.21"/></g></g><g class="cls-4"><path class="cls-6" d="M119.56,74.54h-2.35l-2.94-8.65c-.24-.76-.49-1.61-.75-2.57h0c-.15.63-.48,1.75-1,3.37l-2.45,7.85h-2.36l-4.14-13.41h2.26l2.79,9.74.43,1.54h0c.23-.93.53-2,.91-3.3l2.57-8h2.29l2.6,8c.44,1.42.76,2.54,1,3.34h0c.13-.53.44-1.63.92-3.29l2.4-8h2.16Z"/><path class="cls-6" d="M143.34,74.54H141l-2.94-8.65c-.25-.76-.5-1.61-.75-2.57h0c-.15.63-.47,1.75-1,3.37l-2.45,7.85H131.5l-4.15-13.41h2.27l2.79,9.74.42,1.54h0c.23-.93.53-2,.91-3.3l2.56-8h2.3l2.59,8c.45,1.42.77,2.54,1,3.34h0c.14-.53.44-1.63.93-3.29l2.39-8h2.16Z"/><path class="cls-6" d="M167.13,74.54h-2.35l-2.93-8.65c-.25-.76-.5-1.61-.75-2.57h0c-.15.63-.47,1.75-1,3.37l-2.44,7.85h-2.36l-4.15-13.41h2.26l2.8,9.74.42,1.54h0c.23-.93.54-2,.91-3.3l2.57-8h2.29l2.6,8c.44,1.42.77,2.54,1,3.34H166c.13-.53.44-1.63.92-3.29l2.4-8h2.16Z"/><path class="cls-6" d="M176.7,74.33a1.46,1.46,0,0,1-1,.42,1.43,1.43,0,0,1-1-.42,1.37,1.37,0,0,1-.43-1,1.45,1.45,0,0,1,1.47-1.46,1.44,1.44,0,0,1,1.47,1.46,1.4,1.4,0,0,1-.42,1"/><path class="cls-6" d="M190.34,74.54a19.3,19.3,0,0,1,.14-2.83h-.06a4.6,4.6,0,0,1-1.71,2.17,5.07,5.07,0,0,1-3,.9,3.66,3.66,0,0,1-2.63-1,3.38,3.38,0,0,1-1-2.6,3.69,3.69,0,0,1,2.11-3.3,12.15,12.15,0,0,1,6.07-1.25V66a4.08,4.08,0,0,0-.67-2.62,2.87,2.87,0,0,0-2.35-.85,9.08,9.08,0,0,0-4,1l-.44-1.64a12.43,12.43,0,0,1,4.76-1c3.16,0,4.74,1.57,4.74,4.69v4.94c0,1.89,0,3.23.05,4Zm-.08-6.39q-6.15,0-6.15,2.78a2.12,2.12,0,0,0,2.22,2.22,3.51,3.51,0,0,0,2.84-1.48,5,5,0,0,0,1.09-3.2Z"/><rect class="cls-6" x="199.46" y="54.85" width="2.03" height="19.69"/><path class="cls-6" d="M214.64,73.55a6.32,6.32,0,0,1-4.08,1.23,11.5,11.5,0,0,1-3-.34l.25-1.88a8.27,8.27,0,0,0,3,.52,4,4,0,0,0,2.31-.61,1.9,1.9,0,0,0,.91-1.66,1.77,1.77,0,0,0-1-1.64,13.84,13.84,0,0,0-2.25-.79,6.2,6.2,0,0,1-2.25-1.06,3.08,3.08,0,0,1-1-2.49,3.48,3.48,0,0,1,1.3-2.81,6,6,0,0,1,3.88-1.13,13.63,13.63,0,0,1,2.64.29l-.18,1.7a9.69,9.69,0,0,0-2.67-.39c-1.93,0-2.89.71-2.89,2.12a1.83,1.83,0,0,0,1,1.65,18.19,18.19,0,0,0,2.27.8,6.54,6.54,0,0,1,2.25,1.07,3,3,0,0,1,1,2.42,3.68,3.68,0,0,1-1.48,3"/><path class="cls-6" d="M231.67,72.7A5.83,5.83,0,0,1,227,74.78a5.58,5.58,0,0,1-4.32-1.67,7.57,7.57,0,0,1-1.59-5.21A7.33,7.33,0,0,1,222.77,63a5.89,5.89,0,0,1,4.71-2.07,5.69,5.69,0,0,1,4.19,1.52,7.08,7.08,0,0,1,1.73,5.2,7.57,7.57,0,0,1-1.73,5.09m-4.4-10.13a3.64,3.64,0,0,0-2.82,1.24,5.75,5.75,0,0,0-1.25,3.94q0,5.3,4.1,5.3a3.54,3.54,0,0,0,2.8-1.26,6.05,6.05,0,0,0,1.22-4c0-3.46-1.35-5.18-4-5.18"/><rect class="cls-6" x="239.04" y="54.85" width="2.03" height="19.69"/><path class="cls-6" d="M250.13,57.79a1.34,1.34,0,0,1-1,.41,1.38,1.38,0,0,1-1-.4,1.28,1.28,0,0,1-.41-1,1.26,1.26,0,0,1,.41-1,1.35,1.35,0,0,1,1-.41,1.34,1.34,0,0,1,1,.4,1.28,1.28,0,0,1,.42,1,1.32,1.32,0,0,1-.42,1m-2,3.34h2V74.54h-2Z"/><path class="cls-6" d="M274.13,74.54V65.91c0-2.23-.81-3.34-2.42-3.34a3.44,3.44,0,0,0-2.79,1.5,6.53,6.53,0,0,0-1.23,4.11v6.36h-2V65.89c0-2.22-.81-3.32-2.43-3.32a3.42,3.42,0,0,0-2.84,1.57,6.6,6.6,0,0,0-1.18,4v6.36h-2V61.13h2a15.61,15.61,0,0,1-.23,3l.06,0a4.67,4.67,0,0,1,4.73-3.27,3.6,3.6,0,0,1,3,1.22,3.31,3.31,0,0,1,.76,2,4.61,4.61,0,0,1,4.67-3.21c2.65,0,4,1.46,4,4.36v9.29Z"/><path class="cls-6" d="M290.31,74.54a19.3,19.3,0,0,1,.14-2.83h-.06a4.6,4.6,0,0,1-1.71,2.17,5.07,5.07,0,0,1-2.95.9,3.66,3.66,0,0,1-2.63-1,3.38,3.38,0,0,1-1-2.6,3.68,3.68,0,0,1,2.1-3.3,12.17,12.17,0,0,1,6.08-1.25V66a4.14,4.14,0,0,0-.67-2.62,2.9,2.9,0,0,0-2.36-.85,9.08,9.08,0,0,0-4,1l-.43-1.64a12.34,12.34,0,0,1,4.75-1c3.16,0,4.74,1.57,4.74,4.69v4.94c0,1.89,0,3.23.05,4Zm-.07-6.39q-6.17,0-6.16,2.78a2.12,2.12,0,0,0,2.22,2.22,3.51,3.51,0,0,0,2.84-1.48,5,5,0,0,0,1.1-3.2Z"/><path class="cls-6" d="M307.8,74.54V65.89c0-2.22-.83-3.32-2.5-3.32a3.51,3.51,0,0,0-2.95,1.58,6.58,6.58,0,0,0-1.15,4v6.41h-2V61.13h2a17.56,17.56,0,0,1-.23,3l.06,0a4.72,4.72,0,0,1,4.81-3.27q4,0,4,4.31v9.34Z"/><path class="cls-6" d="M318.41,74.33a1.52,1.52,0,0,1-2.1,0,1.4,1.4,0,0,1-.42-1,1.47,1.47,0,1,1,2.94,0,1.4,1.4,0,0,1-.42,1"/><path class="cls-6" d="M333.54,74a10.49,10.49,0,0,1-4.11.75q-5.81,0-5.8-6.41A8,8,0,0,1,325.27,63,5.8,5.8,0,0,1,330,61a9.21,9.21,0,0,1,3.42.59l-.39,1.73a8.94,8.94,0,0,0-3.27-.65,3.48,3.48,0,0,0-3,1.49,6.4,6.4,0,0,0-1,3.84c0,3.37,1.35,5,4.07,5a7.61,7.61,0,0,0,3.31-.7Z"/><path class="cls-6" d="M348.26,72.7a5.83,5.83,0,0,1-4.66,2.08,5.58,5.58,0,0,1-4.32-1.67,7.52,7.52,0,0,1-1.6-5.21A7.34,7.34,0,0,1,339.36,63a5.89,5.89,0,0,1,4.71-2.07,5.69,5.69,0,0,1,4.19,1.52,7.08,7.08,0,0,1,1.73,5.2,7.57,7.57,0,0,1-1.73,5.09m-4.4-10.13A3.64,3.64,0,0,0,341,63.81a5.75,5.75,0,0,0-1.25,3.94q0,5.3,4.1,5.3a3.54,3.54,0,0,0,2.8-1.26,6.05,6.05,0,0,0,1.21-4c0-3.46-1.34-5.18-4-5.18"/><path class="cls-6" d="M372.44,74.54V65.91c0-2.23-.81-3.34-2.42-3.34a3.42,3.42,0,0,0-2.78,1.5A6.47,6.47,0,0,0,366,68.18v6.36h-2V65.89c0-2.22-.81-3.32-2.42-3.32a3.43,3.43,0,0,0-2.85,1.57,6.67,6.67,0,0,0-1.17,4v6.36h-2V61.13h2a15.74,15.74,0,0,1-.22,3l.05,0a4.67,4.67,0,0,1,4.73-3.27,3.64,3.64,0,0,1,3,1.22,3.36,3.36,0,0,1,.75,2,4.62,4.62,0,0,1,4.68-3.21c2.64,0,4,1.46,4,4.36v9.29Z"/><path class="cls-6" d="M383,74.33a1.51,1.51,0,0,1-2.09,0,1.4,1.4,0,0,1-.42-1,1.47,1.47,0,1,1,2.93,0,1.4,1.4,0,0,1-.42,1"/><path class="cls-6" d="M395.69,73.55a6.35,6.35,0,0,1-4.09,1.23,11.56,11.56,0,0,1-3-.34l.25-1.88a8.32,8.32,0,0,0,3,.52,3.91,3.91,0,0,0,2.3-.61,1.9,1.9,0,0,0,.91-1.66,1.77,1.77,0,0,0-1-1.64,13.46,13.46,0,0,0-2.25-.79,6.29,6.29,0,0,1-2.25-1.06,3.11,3.11,0,0,1-1-2.49A3.46,3.46,0,0,1,389.84,62a6,6,0,0,1,3.87-1.13,13.73,13.73,0,0,1,2.65.29l-.19,1.7a9.59,9.59,0,0,0-2.67-.39c-1.92,0-2.89.71-2.89,2.12a1.82,1.82,0,0,0,1,1.65,17.19,17.19,0,0,0,2.26.8,6.7,6.7,0,0,1,2.26,1.07,3,3,0,0,1,1,2.42,3.67,3.67,0,0,1-1.47,3"/><path class="cls-6" d="M410.51,74.54a21.39,21.39,0,0,1,.13-2.83h-.05a4.6,4.6,0,0,1-1.71,2.17,5.07,5.07,0,0,1-2.95.9,3.7,3.7,0,0,1-2.64-1,3.41,3.41,0,0,1-1-2.6,3.67,3.67,0,0,1,2.11-3.3,12.15,12.15,0,0,1,6.07-1.25V66a4.08,4.08,0,0,0-.67-2.62,2.89,2.89,0,0,0-2.36-.85,9.08,9.08,0,0,0-4,1L403,61.86a12.43,12.43,0,0,1,4.76-1c3.16,0,4.74,1.57,4.74,4.69v4.94c0,1.89,0,3.23.05,4Zm-.08-6.39q-6.15,0-6.15,2.78a2.12,2.12,0,0,0,2.21,2.22,3.51,3.51,0,0,0,2.85-1.48,5,5,0,0,0,1.09-3.2Z"/><path class="cls-6" d="M495.72,9a15.82,15.82,0,0,0,8.86-2.45s3.31-5.12,3.31-8.17a32.77,32.77,0,0,0-3.16-14.28l-3.68,5s5.4,6,6,10.12c0,0-3.4,3.74-11.29,3.74-9.43,0-10.81-2.47-11.18-4.56C483,.31,482.68.79,482.68.79S484,9,495.72,9"/><path class="cls-6" d="M454.81-5V-31.1l-1.53-3.24L449.6-30s3.74,17.84,3.61,24.42c-.11,5.72-2.37,6.68-2.37,6.68l.56,1S454.81.39,454.81-5"/><path class="cls-6" d="M487.07-8.12s-1.81-4.74-8.08-4.74-14,5.61-19.48,8.73S445.24,4.6,445.24,4.6c-8.87.39-15.68.33-20.82.07-.5-8.89-3.5-16.07-7.7-16.07-4,0-7.47,6.25-8.09,10.09-1,6.16.28,9.84,4.83,10.58,1.18.19,4.56.55,9.35.85C420.44,14,412,20.28,395.42,22.31v1.07a94.2,94.2,0,0,1,14.07,1.83s13.09-2.09,14.81-15c14,.76,38.23.79,56.41-5,6.83-6.17,6.36-13.3,6.36-13.3M410.36,2.8,410.13,2s1.92-6.6,6.53-6.6c2.73,0,5.55,4.26,6.52,9.17-9.54-.56-12.82-1.8-12.82-1.8m73-4.21s-10,5-31.71,5.45c0,0,10.16-5.35,15-8s10.81-5.19,16.8,1.72Z"/><path class="cls-6" d="M349.06,16.05a49.11,49.11,0,0,0-4.3,5.53c1.15,1.86,4.3,3.93,4.3,3.93l.38-.16a17.9,17.9,0,0,1,3.91-5.06,39.2,39.2,0,0,0-4.29-4.24"/><path class="cls-6" d="M339.57,17.16a49.11,49.11,0,0,0-4.3,5.53c1.15,1.86,4.3,3.92,4.3,3.92l.38-.15a17.9,17.9,0,0,1,3.91-5.06,39.2,39.2,0,0,0-4.29-4.24"/><path class="cls-6" d="M227.83,14.29a48.15,48.15,0,0,0-4.3,5.53c1.15,1.86,4.3,3.92,4.3,3.92l.38-.15a18,18,0,0,1,3.91-5.07,39.48,39.48,0,0,0-4.29-4.23"/><path class="cls-6" d="M17.93,19.83c17.18,0,19.19-14.17,19.19-17.23,0-9.29-5-17.84-5-17.84l-3.68,5S35.67-.65,36.23,3.46c0,0-2.29,10.34-18.3,10.34C3.48,13.8,7.63-2.08,11.29-6.81l-.75-.67S5.93-.78,5.93,6,8,19.83,17.93,19.83"/><path class="cls-6" d="M215.57-3V-33.86H215a20.68,20.68,0,0,1-4.59,5.63,178.3,178.3,0,0,1,3.46,30.65,5,5,0,0,0,1.9,3.91c1.69,1.31,4.78,2.7,10.31,2.7A15.82,15.82,0,0,0,235,6.58s3.31-5.11,3.31-8.17c0-8.75-3.43-13.34-3.43-13.34l-3.68,5s5.66,5.08,6.22,9.18c0,0-3.39,3.74-11.28,3.74a17.8,17.8,0,0,1-7.57-1.4,5.14,5.14,0,0,1-3-4.65"/><path class="cls-6" d="M108.55,11.63C156,11.63,178.81,6,178.81-6c0-2.12-.66-6.6-1.84-8.58S174.2-18,172.45-18c-4,0-7.48,6.25-8.09,10.09a23.89,23.89,0,0,0,.07,8.2S166.61,9,189.21,9a15.86,15.86,0,0,0,8.86-2.45s3.31-5.11,3.31-8.17c0-8.85-3.44-13.34-3.44-13.34l-3.68,5s5.67,5.08,6.23,9.18c0,0-3.39,3.74-11.28,3.74-18.31,0-23.35-6.69-23.35-6.69v-.84s1.9-6.6,6.07-6.6c1.59,0,4.92,2,4.92,7.53,0,0-15.76,9.09-66.47,9.09C76.44,5.49,59.1,2.05,52.58.35a4.2,4.2,0,0,1-3.13-4.06V-31.48h-.56a20.88,20.88,0,0,1-4.58,5.64A200.45,200.45,0,0,1,47.94,2.82a4.19,4.19,0,0,0,3,3.83c5.87,1.72,21.71,5,57.59,5"/><path class="cls-6" d="M211.74,14.53h.41s3.11-5.33-.34-5.33c-2.87,0-4.87,3.36-5.94,5.77a3.17,3.17,0,0,0,1.58,4.17,7.61,7.61,0,0,0,3.46.65c3.82-.18,2.74-4,2.74-4s-4.39,3.14-6.53-.59c0,0,1.12-2.62,3.61-2.62,1.53,0,1,1.91,1,1.91"/><path class="cls-6" d="M217.11,14.33l-.44,3.16s-6.65,2.21-10,7.27V23.7s.84-4.83,10-9.71Z"/><path class="cls-6" d="M402.24-5.53a32.36,32.36,0,0,0-3.17-14.28l-3.67,5s5.39,6,6,10.13c-.91,1.28-7.42,6-61.48,6C262.19,1.35,268-10.42,268-10.42h-.56A52.26,52.26,0,0,1,265-1s6,5.93,6,9.1-8.12,11.78-28.11,14.22v1.07A95.66,95.66,0,0,1,257,25.21s15-2.4,15-17.91a37.62,37.62,0,0,0-1.05-8s12.21,8.17,69.28,8.17c61.45,0,62-6.18,62-13"/></g><path class="cls-6" d="M505.85,11.23a49,49,0,0,0-4.31,5.53c1.16,1.86,4.31,3.92,4.31,3.92l.38-.15a18,18,0,0,1,3.9-5.06,38.72,38.72,0,0,0-4.28-4.24"/><path class="cls-6" d="M496.36,12.34a49,49,0,0,0-4.31,5.53c1.16,1.85,4.31,3.92,4.31,3.92l.37-.15a18.25,18.25,0,0,1,3.91-5.07,39,39,0,0,0-4.28-4.23"/><path class="cls-6" d="M495.72,53a15.82,15.82,0,0,0,8.86-2.45s3.31-5.12,3.31-8.17a32.77,32.77,0,0,0-3.16-14.28l-3.68,5s5.4,6,6,10.12c0,0-3.4,3.74-11.29,3.74-9.43,0-10.81-2.47-11.18-4.56-1.5,1.87-1.86,2.35-1.86,2.35S484,53,495.72,53"/><polygon class="cls-6" points="457.94 21.07 458.39 20.48 453.28 9.66 449.6 13.97 457.94 21.07"/><path class="cls-6" d="M454.81,39V12.9l-1.53-3.24L449.6,14s3.74,17.84,3.61,24.42c-.11,5.72-2.37,6.68-2.37,6.68l.56,1s3.41-1.65,3.41-7.08"/><path class="cls-6" d="M487.07,35.88s-1.81-4.74-8.08-4.74-14,5.61-19.48,8.73-14.27,8.73-14.27,8.73c-8.87.39-15.68.33-20.82.07-.5-8.89-3.5-16.07-7.7-16.07-4,0-7.47,6.25-8.09,10.09-1,6.16.28,9.84,4.83,10.58,1.18.19,4.56.55,9.35.85C420.44,58,412,64.28,395.42,66.31v1.07a94.43,94.43,0,0,1,14.08,1.83s13.08-2.09,14.8-15c14,.76,38.23.79,56.41-5,6.83-6.17,6.36-13.3,6.36-13.3M410.36,46.8l-.23-.77s1.93-6.6,6.53-6.6c2.73,0,5.55,4.26,6.52,9.17-9.54-.56-12.82-1.8-12.82-1.8m73-4.21s-10,5-31.71,5.45c0,0,10.16-5.35,15-8s10.81-5.19,16.8,1.72Z"/><path class="cls-6" d="M349.07,60.05a48.8,48.8,0,0,0-4.31,5.53c1.15,1.86,4.31,3.93,4.31,3.93l.37-.16a17.9,17.9,0,0,1,3.91-5.06,39.72,39.72,0,0,0-4.28-4.24"/><path class="cls-6" d="M339.57,61.16a49.11,49.11,0,0,0-4.3,5.53c1.15,1.86,4.3,3.92,4.3,3.92l.38-.15a17.9,17.9,0,0,1,3.91-5.06,39.2,39.2,0,0,0-4.29-4.24"/><path class="cls-6" d="M20.77,20.6a48.15,48.15,0,0,0-4.3,5.53c1.15,1.85,4.3,3.92,4.3,3.92l.38-.15a18,18,0,0,1,3.91-5.07,38.53,38.53,0,0,0-4.29-4.23"/><path class="cls-6" d="M227.83,58.29a48.15,48.15,0,0,0-4.3,5.53c1.15,1.86,4.3,3.92,4.3,3.92l.38-.15a18,18,0,0,1,3.91-5.07,39.48,39.48,0,0,0-4.29-4.23"/><path class="cls-6" d="M200.84,13.84a49,49,0,0,0-4.31,5.53c1.16,1.86,4.31,3.92,4.31,3.92l.37-.15a17.9,17.9,0,0,1,3.91-5.06,38.72,38.72,0,0,0-4.28-4.24"/><path class="cls-6" d="M191.34,15a48.15,48.15,0,0,0-4.3,5.53c1.15,1.86,4.3,3.92,4.3,3.92l.38-.15a18,18,0,0,1,3.91-5.07A39.48,39.48,0,0,0,191.34,15"/><path class="cls-6" d="M175.11,9.6a50,50,0,0,0-4.31,5.53c1.16,1.86,4.31,3.93,4.31,3.93l.37-.16a18.12,18.12,0,0,1,3.91-5.06,38.72,38.72,0,0,0-4.28-4.24"/><path class="cls-6" d="M165.62,10.71a48.8,48.8,0,0,0-4.31,5.53c1.15,1.86,4.31,3.93,4.31,3.93L166,20A17.9,17.9,0,0,1,169.9,15a39.72,39.72,0,0,0-4.28-4.24"/><path class="cls-6" d="M17.93,63.83c17.18,0,19.19-14.17,19.19-17.23,0-9.29-5-17.84-5-17.84l-3.68,5s7.22,9.58,7.78,13.69c0,0-2.29,10.34-18.3,10.34-14.45,0-10.3-15.88-6.64-20.61l-.75-.67S5.93,43.22,5.93,50,8,63.83,17.93,63.83"/><path class="cls-6" d="M215.57,41V10.14H215a20.68,20.68,0,0,1-4.59,5.63,178.3,178.3,0,0,1,3.46,30.65,5,5,0,0,0,1.9,3.91c1.69,1.31,4.78,2.7,10.31,2.7A15.82,15.82,0,0,0,235,50.58s3.31-5.11,3.31-8.17c0-8.75-3.43-13.34-3.43-13.34l-3.68,5s5.66,5.08,6.22,9.18c0,0-3.39,3.74-11.28,3.74a17.8,17.8,0,0,1-7.57-1.4,5.14,5.14,0,0,1-3-4.65"/><path class="cls-6" d="M108.55,55.63C156,55.63,178.81,50,178.81,38c0-2.12-.66-6.6-1.84-8.58S174.2,26,172.45,26c-4,0-7.47,6.25-8.09,10.09a23.89,23.89,0,0,0,.07,8.2s2.18,8.7,24.78,8.7a15.86,15.86,0,0,0,8.86-2.45s3.31-5.11,3.31-8.17c0-8.85-3.44-13.34-3.44-13.34l-3.67,5s5.66,5.08,6.22,9.18c0,0-3.39,3.74-11.28,3.74-18.3,0-23.35-6.69-23.35-6.69v-.84s1.9-6.6,6.08-6.6c1.58,0,4.91,2,4.91,7.53,0,0-15.76,9.09-66.47,9.09-33.94,0-51.28-3.44-57.8-5.14a4.21,4.21,0,0,1-3.13-4.06V12.52h-.56a20.88,20.88,0,0,1-4.58,5.64,200.45,200.45,0,0,1,3.63,28.66,4.19,4.19,0,0,0,3,3.83c5.87,1.72,21.71,5,57.59,5"/><path class="cls-6" d="M211.74,58.53h.41s3.11-5.33-.34-5.33c-2.87,0-4.87,3.36-5.94,5.77a3.17,3.17,0,0,0,1.58,4.17,7.61,7.61,0,0,0,3.46.65c3.82-.18,2.74-4,2.74-4s-4.39,3.14-6.53-.59c0,0,1.12-2.62,3.61-2.62,1.53,0,1,1.91,1,1.91"/><path class="cls-6" d="M217.11,58.33l-.44,3.16s-6.65,2.21-10,7.27V67.7s.84-4.83,10-9.71Z"/><path class="cls-6" d="M402.24,38.47a32.36,32.36,0,0,0-3.17-14.28l-3.67,5s5.39,6,6,10.13c-.91,1.28-7.42,6-61.48,6C262.19,45.35,268,33.58,268,33.58h-.56A52.26,52.26,0,0,1,265,43s6,5.93,6,9.1-8.12,11.78-28.11,14.22v1.07A95.66,95.66,0,0,1,257,69.21s15-2.4,15-17.91a37.62,37.62,0,0,0-1.05-8s12.21,8.17,69.28,8.17c61.45,0,62-6.18,62-13"/><path class="cls-6" d="M351,15.88h-.8s-.92-2-2.5-2c-2.53,0-2.9,12.93-2.9,12.93l-1.65.91s-1-11-8.76-11c0,0-.1-4.15,2.54-4.15,3.56,0,6.95,10.92,6.95,10.92l.49-.22s-.15-12.41,3.56-12.41S351,15.88,351,15.88"/></svg>