<svg id="Layer_1" data-name="Layer 1" xmlns="http://www.w3.org/2000/svg" viewBox="0 0 563.51 411.85"><defs><style>.cls-1{fill:#0089bb;}.cls-2{fill:#fff;}.cls-3{fill:#333;}</style></defs><rect class="cls-1" x="142.72" y="4.2" width="278.07" height="278.07"/><path class="cls-2" d="M363.56,223.72a1,1,0,1,1,.95,1,.94.94,0,0,1-.95-1m3.63-1a1,1,0,0,1,0,1.93.94.94,0,0,1-1-1,1,1,0,0,1,1-1m4.57,8.12a29.36,29.36,0,0,1-.28,4h-2.7c-1.72,0-2.66-.44-3-1.45a2.54,2.54,0,0,1-2.55,1.59,2.37,2.37,0,0,1-2.55-1.59,2.24,2.24,0,0,1-2.44,1.45h-2.35V235c0,2.57-.94,4.56-4.19,4.56a7.37,7.37,0,0,1-1.89-.26l.2-1.37a5.21,5.21,0,0,0,1.81.3c1.5,0,2.41-.72,2.41-3.09v-8.73h1.66v7.18h2.37c1.29,0,1.86-.58,1.86-2.53v-3.57h1.67v3.71c0,1.56.36,2.51,1.7,2.51s1.68-1,1.68-2.51v-4.43h1.61v4.36c0,1.88.47,2.46,2.38,2.46H370c.09-.78.14-1.85.14-2.52a19.73,19.73,0,0,0-.6-5l1.63-.29a20.66,20.66,0,0,1,.63,5.14m-6.83-9.26a.92.92,0,0,1,.92-.94.91.91,0,0,1,.9.94.91.91,0,1,1-1.82,0m-27.11,11.92h-1.59c-2.33,0-3.29-1-3.29-3.08,0-1.79,1-3,2.69-3a5.59,5.59,0,0,1,2.19.42Zm4.43-6.19c3.17.91,4.69,2.64,4.74,6.19h-7.54v-6.75a11.37,11.37,0,0,0-3.64-.63,4.23,4.23,0,0,0-4.55,4.48c0,2.57,1.26,4.22,4.73,4.22h12.64v-.93c0-4.24-1.62-6.25-4.44-7.41l4.92-3v-1.68l-6.86,4.3Zm-8.88-3.63a1,1,0,0,1,1.92,0,1,1,0,0,1-1,1,.94.94,0,0,1-1-1m2.66,0a1,1,0,0,1,1-1,1,1,0,0,1,0,1.93,1,1,0,0,1-1-1m-13.38-1.61h1.66v12.75h-1.66Zm-39.56,11.43h-2c-2.19,0-3.06-.91-3.06-2.82s1-3.24,2.62-3.24,2.48.9,2.48,3.24Zm34.46,0h-4.29c.07-.89.13-1.85.13-2.66a20.62,20.62,0,0,0-.64-5.14l-1.62.29a20.24,20.24,0,0,1,.59,5c0,.67-.05,1.74-.14,2.52h-.84c-1.91,0-2.38-.58-2.38-2.46v-4.36h-1.61v4.43c0,1.54-.38,2.51-1.68,2.51s-1.7-.95-1.7-2.51v-3.71H301.7V231c0,2-.57,2.53-1.86,2.53h-2.35V222.11h-1.66v11.43h-4.27v-7.18h-1.67v7.18h-5.17v-3.09c0-2.77-1.27-4.29-4-4.29-2.87,0-4.41,2.06-4.41,4.72,0,2.13-.67,2.66-1.59,2.66h-2.06V222.11H271v12.75h3.65a2.41,2.41,0,0,0,2.41-1.54c.56,1,1.68,1.54,3.76,1.54h19a2.24,2.24,0,0,0,2.44-1.45,2.37,2.37,0,0,0,2.55,1.59,2.54,2.54,0,0,0,2.55-1.59c.38,1,1.32,1.45,3,1.45h8.81V222.11h-1.66Zm-26.14,4a1,1,0,0,1-.94,1,1,1,0,1,1,0-1.94.94.94,0,0,1,.94,1m-2.66,0a1,1,0,0,1-.95,1,1,1,0,1,1,.95-1m-26.67-10.41a1,1,0,1,1,1,1,1,1,0,0,1-1-1m4-.78h1.66v7.57c0,3.41-1.63,5.1-4.77,5.1-2.5,0-4.51-1.33-4.51-5a13.35,13.35,0,0,1,.46-3.44l1.71-.32a13.19,13.19,0,0,0-.5,3.6c0,3.09,1.57,3.88,3,3.88,1.72,0,2.95-.9,2.95-3.67Zm-16.46-4.25h1.66v12.75H249.6Zm-12.14,9.71c-1.21-1.09-2.35-2.4-3.92-3a7,7,0,0,1,3.49-1.45c1.39,0,2,.8,2,1.77a3.49,3.49,0,0,1-1.58,2.68m-12.15,1.72c-1.63,0-2.53-1.09-2.53-3.09s1.25-3,2.55-3c1.66,0,2.49,1.09,2.49,3,0,2.12-1.15,3.08-2.51,3.08m19.19,0h-3.37a4.48,4.48,0,0,1-2.6-.87,4.94,4.94,0,0,0,2.17-3.74c0-1.47-1-2.81-3.49-2.81a9.65,9.65,0,0,0-5.23,2.17l-.14,1.16c1.84.6,3.06,1.94,4.34,3.15a11.94,11.94,0,0,1-4.94.94h-1.57c-.65,0-1.58.05-1.58.05a4,4,0,0,0,1.41-3.24c0-3-1.73-4.19-4-4.19a4.2,4.2,0,0,0-4.37,4.41,3.54,3.54,0,0,0,1.19,3s-.67-.05-1.28-.05h-2.77V222.11h-1.67v12.75H231.1a13.28,13.28,0,0,0,6.13-1.34,5.68,5.68,0,0,0,3.67,1.34h5.26V222.11H244.5Zm-21.41-9.82a1,1,0,1,1,1.91,0,1,1,0,0,1-1,1,.94.94,0,0,1-.95-1m2.65,0a1,1,0,0,1,1-1,1,1,0,0,1,0,1.93,1,1,0,0,1-1-1m-14.12,2.64h1.66V235c0,2.57-.94,4.56-4.19,4.56a7.23,7.23,0,0,1-1.88-.26l.2-1.37a5.15,5.15,0,0,0,1.8.3c1.51,0,2.41-.72,2.41-3.09Zm-7.45,11.19a1,1,0,0,1-1,1,1,1,0,1,1,1-1m2.66,0a1,1,0,1,1-1.92,0,1,1,0,0,1,1-1,.94.94,0,0,1,.94,1m-8.52-4h-1.59c-2.34,0-3.29-1-3.29-3.08,0-1.79,1-3,2.69-3a5.59,5.59,0,0,1,2.19.42Zm7,0h-5.38v-6.75a11.27,11.27,0,0,0-3.63-.63,4.24,4.24,0,0,0-4.56,4.48c0,2.57,1.27,4.22,4.74,4.22H207v-8.5h-1.66Zm-8.79-9.82a1,1,0,0,1,1-1,1,1,0,1,1-1,1m-2.66,0a1,1,0,0,1,1-1,1,1,0,0,1,0,1.93.94.94,0,0,1-1-1m101-55.06s5.82,4.28,6,4.28,1.53-2.46,2.76-4.16,2.94-3.3,2.94-4.08-6.51-5.42-7.11-5.42-4.88,7.79-4.88,7.79-5.07-4.86-5.88-4.86c-1.13,0-5.73,8.44-5.73,8.44s5.63,5.36,6.29,5.36c1.66,0,5.63-7.35,5.63-7.35m27.31-48c2.56,0,2.06-5.79,2.06-7.58,0-2.68-.61-4.1-1-4.1s1.08,6.4-1.83,6.4-5.21-4.35-5.21-9.92S319,90.53,318.68,90,315,100.13,315,105.7s.94,14.91,7.14,14.91M274,89.83c3-2.65,5.85-9.71,7-12s2.67-6.66-1.95-6.31c-9.39.73-14.88,2.46-15,2.66a13.33,13.33,0,0,0-.89,2.73,51.22,51.22,0,0,0-1.43,6.65c.23.3,10.39-2.5,14.4-2.5a2.83,2.83,0,0,1,1.24.22,28.58,28.58,0,0,1-5,4.49c-5.33,3.83-13.2,8.59-13.71,9.09-.3.3,0,.8,0,.8s13.33-4,15.35-5.83m-32,82.41c-.72,0-1.22,5.36-1.22,4.91,0,.83,2.37,1.32,4.53,3.17A11.09,11.09,0,0,1,249,189c0,5-1.09,5.62-1,5.83s3-3.32,3-9.27a13.08,13.08,0,0,0-1.05-6.09c-2.14-4.24-7-7.23-7.93-7.23m-18.5-46.56c-1.06,0-5.73,8.49-5.73,8.49s4,3.74,7,6.51c1,.89.28,1.4,1,1.4.32,0,1.85-1.79,3.41-3.47s3.19-3.25,3.19-3.61c0-1.8-2.28-3.81-4.55-5.69-3.49-2.89-3.62-3.63-4.32-3.63m60.63-14.58c.31,0,2.77-13.67,2.44-14.59-.23-.65-1.7-1.16-2.07-1.16-2.79,0-12,4.3-17.69,19.78-7,19-12.21,28.65-12.21,28.65l1.36,10a65.67,65.67,0,0,0,4.74-11.1c3.76-11.11,7.78-25.73,16.51-33.88,1.91-1.78,3.91-3.44,6-3.44,1.4,0,.58,3.28.42,5.32,0,.4.53.41.47.41m70.93-43c-.56.08-.82,5.8-1.1,13.16-.36,9.5-.21,21.35-.21,21.35a132.35,132.35,0,0,0-5.72-16c-6.92-15.79-9.54-20.66-10.29-20.58S334.37,79.68,333,90.94a72.33,72.33,0,0,0,.07,17.63S334.24,99,335,92.17s1.83-13.78,1.83-13.78,3.23,5.48,6.94,13.59c3.91,8.56,7.62,18.38,7.62,20.46,0,4.44-4.14,12-7.37,12-4,0-3.62-7.33-4.75-7.33s-1.56,4.16-1.65,7.83c-.27,9.84-5.51,12.54-5.51,12.54s-.11-1-.3-2.14c-.28-1.57-.66-3.42-1.21-3.42s-.47,1.83-.33,3.66a15.05,15.05,0,0,1-.28,3.78,4.19,4.19,0,0,1-1.69,2.8,26,26,0,0,1-4.43,2.66s-.28-1.25-.44-2.71c-.22-2.06-.42-4.54-1.22-4.54-3,0-3.53,11.94-11.48,11.94-10.15,0-7.25-19.52-11.42-49.43C293.19,56.22,284.76,47,284.76,47l-3.1,9.46a140.42,140.42,0,0,1,6.66,18.67c4,14.16,6.75,32.82,8.36,48.22.9,8.57-5.2,14.34-8.4,14.34-4.74,0-1.17-11.81-6.9-11.81S268,139.67,268,149.35c0,12.7,3.9,13.78,3.9,13.78s-2.72,10.35-8.5,10.35c-11.69,0-8.43-34.06-12.8-54.85-2.8-13.26-6.21-16.74-6.21-16.74a36.69,36.69,0,0,0-2.15,5.89c-.68,2.57-.81,2.73-.75,3.13a11.45,11.45,0,0,0,.74,1.81,67.12,67.12,0,0,1,4.47,13.64c2.13,9.64,3.42,22.2,3.42,22.2S243,161.18,224.5,161.18c-17.75,0-30.51-11.77-30.51-28.27s12.42-28,21.9-32.11,28.82-8.13,36.34-18.69c5.18-7.28,4.5-11.36,4.5-11.36a26,26,0,0,1-9.39,13.46c-7.78,5.88-29.41,10.14-39.9,17.68-12,8.63-15.78,22.62-15.78,31.33,0,9.86,5.51,37.79,36,37.79,16.9,0,23.75-11.81,23.75-11.81s1.78,24.13,13.9,24.13c10.7,0,4.85-20.53,17.09-20.53a2,2,0,0,1,1.17.4s.91-12.07-.14-12.07c-1.67,0-5.21,2.52-8.48,2.52s-4.32-1.45-4.32-1.45S275.18,136,281.05,136c3.15,0,2.95,11.68,8.59,11.68,8.13,0,8.26-13.82,8.26-13.82s.38,2,.63,4.82c.69,7.65,2.48,21.7,12.05,21.7,5.66,0,7.87-4.46,9.13-7.79.74-2,1.48-3.57,1.48-3.57a8.51,8.51,0,0,1,.52,1.85c.3,1.85.69,4.42,2.23,4.42,1.28,0,4.31-2,6.2-4a11.2,11.2,0,0,0,2.29-3.68,1,1,0,0,0,.61.21c.55,0,4.11-2.3,5.53-7.6a40,40,0,0,0,.76-9.6c0-3,.53-3.27.53-3.27a21.17,21.17,0,0,1,.79,2.12c.76,2.4,2.12,6,5,6,1.58,0,6.38-2.26,8.43-10.59.83-3.4,1.08-7.79,1.08-13.45,0-9.19,2.13-28.54,2.13-28.54s10.8,12.34,10.8,32.73c0,11.87-3.71,22.77-6,25.93-14.64,20.16-26.74,21-50.84,29.4-28.27,9.91-38.12,20.65-38.12,35.39,0,8.34,1.73,8.84,1.73,8.84s1.07,0,1.07-1.84-.72-.87-.72-5.06c0-4.45,1.44-19.1,41.25-29.13,26.76-6.74,41.71-21.5,49.16-37.75a70.86,70.86,0,0,0,6.23-29.44c0-28.24-15.94-43.86-16.76-43.74"/><path class="cls-2" d="M378.52,72.33h.6c.71,0,1.28-.23,1.28-.8s-.37-.84-1.17-.84a3.29,3.29,0,0,0-.71.07Zm0,3.11h-1.27V70a11,11,0,0,1,2.1-.17,3.46,3.46,0,0,1,1.91.4,1.54,1.54,0,0,1,.53,1.21,1.4,1.4,0,0,1-1.13,1.27v.06a1.64,1.64,0,0,1,1,1.34,4.33,4.33,0,0,0,.4,1.37h-1.37a5.07,5.07,0,0,1-.43-1.33c-.1-.6-.44-.87-1.14-.87h-.6Zm-3.38-2.87A4.25,4.25,0,0,0,379.39,77a4.38,4.38,0,0,0,0-8.76,4.26,4.26,0,0,0-4.25,4.38m9.87,0a5.64,5.64,0,1,1-5.62-5.49A5.52,5.52,0,0,1,385,72.57"/><path class="cls-3" d="M40.54,386.37q-15.94,0-15.94-14.16a15.07,15.07,0,0,1,3.77-10.57q4.13-4.51,11.55-4.52a33.89,33.89,0,0,1,12.23,2.14v22.66h6.74v4.45ZM46.66,363a16.87,16.87,0,0,0-7.33-1.42,8.41,8.41,0,0,0-6.65,2.76,10.48,10.48,0,0,0-2.44,7.27q0,10.34,11.08,10.34h5.34ZM34.93,352.19a3.06,3.06,0,0,1-2.28-.92,3.23,3.23,0,0,1-.92-2.37,3.13,3.13,0,0,1,.92-2.26,3,3,0,0,1,2.28-.95,3.2,3.2,0,0,1,2.29.92,3.15,3.15,0,0,1,1,2.29,3.25,3.25,0,0,1-1,2.34,3.11,3.11,0,0,1-2.29.95Zm9,0a3.2,3.2,0,0,1-3.27-3.29,3.12,3.12,0,0,1,1-2.26,3.19,3.19,0,0,1,2.32-.95,3.1,3.1,0,0,1,2.26.92,3.2,3.2,0,0,1,.92,2.29,3.24,3.24,0,0,1-.92,2.34,3,3,0,0,1-2.26.95ZM58,381.92h4.82v4.45H58Zm4,0H75.07v4.45H62Zm12.26,0h9.16v4.45H74.21Zm8.3,0h5V357.78h5.58v28.59H82.51Zm1.17,13.51a3.15,3.15,0,0,1-1,2.31,3.2,3.2,0,0,1-4.58,0,3.17,3.17,0,0,1-.92-2.34,3.19,3.19,0,0,1,3.21-3.21,3.2,3.2,0,0,1,2.29.92,3.05,3.05,0,0,1,1,2.29Zm8.93,0a3.16,3.16,0,0,1-.92,2.31,3,3,0,0,1-2.25,1,3.24,3.24,0,0,1-3.27-3.29,3,3,0,0,1,1-2.26,3.17,3.17,0,0,1,2.32-.95,3.14,3.14,0,0,1,3.17,3.21ZM103.88,402a25.37,25.37,0,0,1-6.33-.83l.59-4.64a17.53,17.53,0,0,0,6.15,1q4,0,5.94-2.22c1.44-1.65,2.17-4.37,2.17-8.17V357.78H118v28.89Q118,402,103.88,402ZM129,343.49h5.59v38.43h6.71v4.45H129Zm11.39,38.43h6.27v4.45H140.4Zm5.41,0h6.27v4.45h-6.27Zm5.41,0h3.53c1.37,0,2.81.07,4.31.2q-4-3-4-10.15A14.69,14.69,0,0,1,159,361.43a14.19,14.19,0,0,1,10.78-4.31q6.18,0,9.68,3.24,3.85,3.61,3.86,10.87,0,7.45-4.72,10.89c2.06-.13,11.81-.2,13.27-.2h4.19v4.45H151.22Zm18,0a7.69,7.69,0,0,0,5.94-2.5q2.53-2.76,2.53-7.84,0-10-8.41-10a7.84,7.84,0,0,0-5.9,2.4c-1.79,1.8-2.68,4.33-2.68,7.57q0,10.39,8.52,10.4ZM165,352.19a3.1,3.1,0,0,1-2.29-.92,3.22,3.22,0,0,1-1-2.37,3.24,3.24,0,0,1,5.5-2.29,3.15,3.15,0,0,1,1,2.29,3.25,3.25,0,0,1-1,2.34,3,3,0,0,1-2.26.95Zm9,0a3.24,3.24,0,0,1-3.3-3.29,3.07,3.07,0,0,1,1-2.26,3.15,3.15,0,0,1,2.32-.95,3,3,0,0,1,2.22.92,3.16,3.16,0,0,1,.92,2.29,3.2,3.2,0,0,1-.92,2.34,2.94,2.94,0,0,1-2.22.95Zm21.18,29.73h2a39.8,39.8,0,0,0,16.59-3.15q-9.47-8.91-14.6-10.57l.5-3.89q9.61-7.31,17.55-7.31,5.85,0,9,2.85a8.56,8.56,0,0,1,2.76,6.57q0,6.94-7.31,12.59a15.21,15.21,0,0,0,8.76,2.91h3.71v4.45h-4.51a19.65,19.65,0,0,1-12.35-4.51q-8.58,4.51-20.61,4.51h-1.51Zm9.74-15.86q3.31,1.28,13.18,10.1,5.28-4,5.29-9a5.65,5.65,0,0,0-1.61-4.22,7,7,0,0,0-5.13-1.75q-4.85,0-11.73,4.87Zm28.32,15.86h8.53V343.49h5.58v42.88H233.21Zm25.65-38.43h5.58v42.88h-5.58Zm57.6,39.79q0,17.13-16.06,17.13-6.84,0-10.72-3.8-4.43-4.33-4.43-13.15a43.89,43.89,0,0,1,1.52-11.55l5.79-1.1a42.93,42.93,0,0,0-1.72,12.09q0,7.13,3.26,10.45a9.12,9.12,0,0,0,6.83,2.64q9.92,0,9.92-12.35V357.78h5.61Zm-15.71-19.6a3.24,3.24,0,0,1-3.26-3.26,3.28,3.28,0,0,1,.95-2.38,3.1,3.1,0,0,1,2.31-1,3.3,3.3,0,0,1,3.36,3.36,3.16,3.16,0,0,1-1,2.31,3.28,3.28,0,0,1-2.38.95Zm26.76-20.19h5.59v38.43h3.81v4.45h-9.4Zm8.5,38.43h20v4.45H336Zm5.41,0h18.51v4.45H341.42Zm17.65,0h6.27v4.45h-6.27Zm28.48,4.45q-10.59,0-14-5.73-1.61,5.73-9.29,5.73h-.93v-4.45c2.46,0,4.26-.65,5.41-1.93,1.38-1.55,2.08-4.22,2.08-8a14.64,14.64,0,0,1,3.8-10.39q4.16-4.45,11.4-4.46,13,0,13,13.63v11.17h10.66v4.45Zm6-14.67q0-10.15-8-10.15a8.38,8.38,0,0,0-6.65,2.79,10.5,10.5,0,0,0-2.43,7.3q0,10.28,11.07,10.28h6Zm15.17,10.22h8.88V357.78h5.58v24.14h9.45v4.45H408.69Zm8.41,13.51a3.15,3.15,0,0,1-1,2.31,3.2,3.2,0,0,1-4.58,0,3.17,3.17,0,0,1-.92-2.34,3.19,3.19,0,0,1,3.21-3.21,3.2,3.2,0,0,1,2.29.92,3.05,3.05,0,0,1,1,2.29Zm8.93,0a3.16,3.16,0,0,1-.92,2.31,3,3,0,0,1-2.25,1,3.24,3.24,0,0,1-3.27-3.29,3,3,0,0,1,1-2.26,3.17,3.17,0,0,1,2.32-.95,3.14,3.14,0,0,1,3.17,3.21Zm5.71-13.51h8.52V343.49h5.58v38.43h6.69v4.45H431.74Zm19.89,0h2.61c2.25,0,3.85-.59,4.78-1.76s1.48-3.43,1.48-6.56V361.43h5.59V372.5c0,3.63.24,6.05.74,7.28.69,1.72,2.15,2.58,4.36,2.58q6.27,0,6.27-9.8V359h5.43v15.59q0,4.64,2,6.09c1.15.83,3.45,1.25,6.92,1.25h2a71.5,71.5,0,0,0,.5-8.44,65.72,65.72,0,0,0-2-16.77l5.41-1a63.7,63.7,0,0,1,2.2,17.25q0,3.74-.42,8.94h6.68v4.45H492q-5.82,0-8.47-1a7.12,7.12,0,0,1-4.06-3.86q-2,5.28-9.18,5.29-6.4,0-7.87-5.23c-1.16,3.21-3.88,4.81-8.13,4.81h-2.61Zm53.63,0h8.52V343.49h5.58v42.88h-14.1Zm25.64-38.43h5.59v42.88H530.9Z"/></svg>