<svg id="Layer_1" data-name="Layer 1" xmlns="http://www.w3.org/2000/svg" xmlns:xlink="http://www.w3.org/1999/xlink" viewBox="0 0 184.24 184.24"><defs><style>.cls-1{fill:none;}.cls-2{clip-path:url(#clip-path);}.cls-3{fill:url(#linear-gradient);}.cls-4{fill:#fff;fill-rule:evenodd;}.cls-5{clip-path:url(#clip-path-2);}.cls-6{clip-path:url(#clip-path-3);}.cls-7{clip-path:url(#clip-path-4);}.cls-8{fill:url(#linear-gradient-2);}</style><clipPath id="clip-path"><rect class="cls-1" width="184.24" height="184.24" rx="30.44"/></clipPath><linearGradient id="linear-gradient" x1="-677.78" y1="1313.28" x2="-676.78" y2="1313.28" gradientTransform="matrix(0, 184.24, 184.24, 0, -241862.89, 124871.45)" gradientUnits="userSpaceOnUse"><stop offset="0" stop-color="#00c13e"/><stop offset="1" stop-color="#008530"/></linearGradient><clipPath id="clip-path-2"><polyline class="cls-1" points="402.22 -650.72 -677.78 -650.72 -677.78 -97.72 402.22 -97.72"/></clipPath><clipPath id="clip-path-3"><rect class="cls-1" y="-44" width="184.24" height="184.24" rx="30.44"/></clipPath><clipPath id="clip-path-4"><rect class="cls-1" y="-44" width="184.24" height="184.24"/></clipPath><linearGradient id="linear-gradient-2" x1="-677.78" y1="1313.28" x2="-676.78" y2="1313.28" gradientTransform="matrix(0, 184.24, 184.24, 0, -241862.89, 124827.45)" xlink:href="#linear-gradient"/></defs><g class="cls-2"><rect class="cls-3" width="184.24" height="184.24"/></g><path class="cls-4" d="M154.93,90.5c0,33.79-27.61,61.19-61.67,61.19a61.79,61.79,0,0,1-29.81-7.61L29.31,154.93,40.44,122.1a60.52,60.52,0,0,1-8.85-31.6c0-33.79,27.61-61.19,61.67-61.19s61.67,27.4,61.67,61.19M93.26,39.05c-28.59,0-51.85,23.08-51.85,51.45a50.92,50.92,0,0,0,9.88,30.17l-6.48,19.1,19.93-6.33A51.83,51.83,0,0,0,93.26,142c28.59,0,51.85-23.08,51.85-51.45S121.85,39.05,93.26,39.05M124.4,104.6c-.38-.63-1.39-1-2.89-1.75s-9-4.39-10.33-4.88-2.4-.75-3.4.75-3.91,4.88-4.8,5.88-1.75,1.12-3.27.37a41.49,41.49,0,0,1-12.16-7.44,45.71,45.71,0,0,1-8.41-10.39c-.88-1.5-.09-2.31.66-3.06s1.52-1.75,2.27-2.62A10.45,10.45,0,0,0,83.59,79a2.73,2.73,0,0,0-.13-2.62c-.38-.75-3.4-8.13-4.67-11.14s-2.51-2.89-3.4-2.89a21.07,21.07,0,0,0-2.51.27s-3,.37-4.41,1.87A16.78,16.78,0,0,0,63.18,77c0,7.38,5.41,14.51,6.17,15.51S79.8,109.1,95.17,115.11s15.37,4,18.14,3.75,9-3.63,10.21-7.13,1.26-6.51.88-7.13"/><g class="cls-5"><g class="cls-6"><g class="cls-7"><rect class="cls-8" y="-44" width="184.24" height="184.24"/></g></g></g><g class="cls-5"><path class="cls-4" d="M154.93,46.5c0,33.79-27.61,61.19-61.67,61.19a61.79,61.79,0,0,1-29.81-7.61L29.31,110.93,40.44,78.1a60.52,60.52,0,0,1-8.85-31.6c0-33.79,27.61-61.19,61.67-61.19s61.67,27.4,61.67,61.19M93.26-4.95c-28.59,0-51.85,23.08-51.85,51.45a50.92,50.92,0,0,0,9.88,30.17l-6.48,19.1,19.93-6.33A51.83,51.83,0,0,0,93.26,98c28.59,0,51.85-23.08,51.85-51.45S121.85-4.95,93.26-4.95M124.4,60.6c-.38-.63-1.39-1-2.89-1.75s-9-4.39-10.33-4.88-2.4-.75-3.4.75-3.91,4.88-4.8,5.88-1.75,1.12-3.27.37a41.49,41.49,0,0,1-12.16-7.44,45.71,45.71,0,0,1-8.41-10.39c-.88-1.5-.09-2.31.66-3.06s1.52-1.75,2.27-2.62A10.45,10.45,0,0,0,83.59,35a2.73,2.73,0,0,0-.13-2.62c-.38-.75-3.4-8.13-4.67-11.14s-2.51-2.89-3.4-2.89a21.07,21.07,0,0,0-2.51.27s-3,.37-4.41,1.87A16.78,16.78,0,0,0,63.18,33c0,7.38,5.41,14.51,6.17,15.51S79.8,65.1,95.17,71.11s15.37,4,18.14,3.75,9-3.63,10.21-7.13,1.26-6.51.88-7.13"/></g></svg>