<svg id="Layer_1" data-name="Layer 1" xmlns="http://www.w3.org/2000/svg" xmlns:xlink="http://www.w3.org/1999/xlink" viewBox="0 0 553.15 110.34"><defs><style>.cls-1,.cls-3{fill:none;}.cls-2{clip-path:url(#clip-path);}.cls-3{stroke:#404041;stroke-linecap:round;stroke-width:1.39px;}.cls-4{fill:#404041;}</style><clipPath id="clip-path"><rect class="cls-1" x="-263.42" y="163.99" width="1080" height="121.52"/></clipPath></defs><g class="cls-2"><path class="cls-3" d="M919.53,59.3c-129,154.92-243.41,165.58-459.32,238.16-6.55,2.22-12.92,4.41-19.25,6.63m257.58,0c106.73-53.79,183.25-124.45,236-202.36m-1606,3.61C-630.25,201.09-542,298.9-362.68,298.9-202.14,298.9-137,191.26-137,191.26s4.42,56.91,23.87,112.83M-149.53,94.3s-67.18,115-242.89,115c-117.87,0-212.54-52.48-258.84-135.46M-62.2,304.09C-95.87,269-107.25,184.2-115.42,88M68.91,304.09c12.71-41.85,30.14-80,82.64-80a19.16,19.16,0,0,1,11.15,3.63s8.71-109.93-1.34-109.93c-15.84,0-49.5,22.89-80.49,22.89s-41-13.17-41-13.17M14.64,101.57c0,115.71,37,125.58,37,125.58S38,276.87,9.5,304.09M413.43,26.37c6.49,69.67,23.5,197.68,114.41,197.68,53.74,0,74.79-40.6,86.68-70.94,7.09-18.08,14.11-32.5,14.11-32.5M296.93,293.17c9.25-14.13,16.25-26.57,16.25-26.57s21.55,15.17,38.07,26.57m27.51,0c5-7.65,11.37-17.5,17.38-25.54,11.55-15.52,27.93-30,27.93-37.15s-61.84-49.37-67.5-49.37-46.37,71-46.37,71S262,207.82,254.31,207.82c-10.7,0-54.41,78.13-54.41,78.13a64.48,64.48,0,0,1,9.42,7.22"/></g><path class="cls-4" d="M138.1,108.94h-2.35l-2.93-8.66c-.25-.75-.5-1.61-.75-2.56h0c-.15.63-.47,1.75-1,3.37l-2.44,7.85h-2.36l-4.15-13.41h2.26l2.8,9.73.42,1.54h0c.23-.93.54-2,.91-3.29l2.57-8h2.29l2.6,8c.44,1.42.77,2.53,1,3.34H137c.13-.53.44-1.63.92-3.29l2.4-8h2.16Z"/><path class="cls-4" d="M161.88,108.94h-2.34l-2.94-8.66c-.24-.75-.49-1.61-.75-2.56h0c-.14.63-.47,1.75-1,3.37l-2.45,7.85H150l-4.15-13.41h2.27l2.79,9.73.42,1.54h0c.23-.93.53-2,.91-3.29l2.57-8h2.29l2.59,8c.45,1.42.77,2.53,1,3.34h.06c.13-.53.44-1.63.92-3.29l2.4-8h2.16Z"/><path class="cls-4" d="M185.67,108.94h-2.34l-2.94-8.66c-.25-.75-.5-1.61-.75-2.56h0c-.15.63-.47,1.75-1,3.37l-2.45,7.85h-2.36l-4.15-13.41H172l2.79,9.73.42,1.54h0c.24-.93.54-2,.91-3.29l2.57-8H181l2.6,8c.45,1.42.77,2.53,1,3.34h.05c.14-.53.44-1.63.93-3.29l2.39-8H190Z"/><path class="cls-4" d="M195.24,108.73a1.51,1.51,0,0,1-2.09,0,1.41,1.41,0,0,1-.42-1,1.47,1.47,0,1,1,2.93,0A1.41,1.41,0,0,1,195.24,108.73Z"/><path class="cls-4" d="M208.89,108.94a19.74,19.74,0,0,1,.13-2.83H209a4.65,4.65,0,0,1-1.71,2.17,5.07,5.07,0,0,1-2.95.9,3.66,3.66,0,0,1-2.63-1,3.35,3.35,0,0,1-1-2.59,3.69,3.69,0,0,1,2.1-3.31,12.28,12.28,0,0,1,6.08-1.25v-.67a4.12,4.12,0,0,0-.67-2.62,2.9,2.9,0,0,0-2.36-.86,9,9,0,0,0-4,1l-.43-1.65a12.33,12.33,0,0,1,4.75-1c3.16,0,4.74,1.57,4.74,4.69v4.94c0,1.89,0,3.23.05,4Zm-.08-6.39c-4.11,0-6.15.93-6.15,2.78a2.09,2.09,0,0,0,2.21,2.21,3.5,3.5,0,0,0,2.84-1.47,5,5,0,0,0,1.1-3.2Z"/><path class="cls-4" d="M218,108.94V89.25h2v19.69Z"/><path class="cls-4" d="M233.18,108a6.32,6.32,0,0,1-4.08,1.23,11,11,0,0,1-3-.35l.25-1.87a8.29,8.29,0,0,0,3,.52,4,4,0,0,0,2.3-.61,1.9,1.9,0,0,0,.91-1.66,1.79,1.79,0,0,0-1-1.65,15,15,0,0,0-2.25-.79,6.13,6.13,0,0,1-2.25-1,3.1,3.1,0,0,1-1-2.49,3.46,3.46,0,0,1,1.31-2.82,6.06,6.06,0,0,1,3.87-1.12,13.55,13.55,0,0,1,2.64.29l-.18,1.7a9.59,9.59,0,0,0-2.67-.39c-1.93,0-2.89.7-2.89,2.12a1.79,1.79,0,0,0,1,1.64,15.32,15.32,0,0,0,2.26.81,6.74,6.74,0,0,1,2.25,1.06,3,3,0,0,1,1,2.43A3.65,3.65,0,0,1,233.18,108Z"/><path class="cls-4" d="M250.21,107.09a5.83,5.83,0,0,1-4.66,2.09,5.55,5.55,0,0,1-4.32-1.68,7.52,7.52,0,0,1-1.59-5.2,7.33,7.33,0,0,1,1.67-4.94A5.9,5.9,0,0,1,246,95.29a5.69,5.69,0,0,1,4.19,1.52,7.06,7.06,0,0,1,1.73,5.2A7.52,7.52,0,0,1,250.21,107.09ZM245.81,97A3.63,3.63,0,0,0,243,98.2a5.72,5.72,0,0,0-1.26,3.94q0,5.31,4.1,5.31a3.56,3.56,0,0,0,2.81-1.26,6.12,6.12,0,0,0,1.21-4Q249.86,97,245.81,97Z"/><path class="cls-4" d="M257.59,108.94V89.25h2v19.69Z"/><path class="cls-4" d="M268.67,92.18a1.31,1.31,0,0,1-1,.41,1.37,1.37,0,0,1-1-.39,1.35,1.35,0,0,1-.41-1,1.28,1.28,0,0,1,.41-1,1.35,1.35,0,0,1,1-.41,1.34,1.34,0,0,1,1,.4,1.24,1.24,0,0,1,.43,1A1.27,1.27,0,0,1,268.67,92.18Zm-2,16.76V95.53h2v13.41Z"/><path class="cls-4" d="M292.67,108.94v-8.63c0-2.23-.81-3.34-2.42-3.34a3.42,3.42,0,0,0-2.78,1.5,6.47,6.47,0,0,0-1.24,4.11v6.36h-2v-8.66c0-2.21-.81-3.31-2.43-3.31A3.44,3.44,0,0,0,279,98.53a6.7,6.7,0,0,0-1.17,4v6.36h-2V95.53h2a16.62,16.62,0,0,1-.22,3l0,0a4.67,4.67,0,0,1,4.73-3.27,3.66,3.66,0,0,1,3,1.21,3.41,3.41,0,0,1,.75,2,4.61,4.61,0,0,1,4.67-3.2c2.65,0,4,1.46,4,4.36v9.29Z"/><path class="cls-4" d="M308.86,108.94a19.74,19.74,0,0,1,.13-2.83h-.05a4.74,4.74,0,0,1-1.72,2.17,5.07,5.07,0,0,1-3,.9,3.68,3.68,0,0,1-2.63-1,3.39,3.39,0,0,1-1-2.59,3.69,3.69,0,0,1,2.11-3.31,12.24,12.24,0,0,1,6.07-1.25v-.67a4.12,4.12,0,0,0-.67-2.62,2.9,2.9,0,0,0-2.36-.86,9,9,0,0,0-4,1l-.43-1.65a12.37,12.37,0,0,1,4.75-1c3.16,0,4.74,1.57,4.74,4.69v4.94q0,2.83.06,4Zm-.08-6.39q-6.15,0-6.15,2.78a2.09,2.09,0,0,0,2.21,2.21,3.53,3.53,0,0,0,2.85-1.47,5,5,0,0,0,1.09-3.2Z"/><path class="cls-4" d="M326.35,108.94v-8.66c0-2.21-.84-3.31-2.51-3.31a3.52,3.52,0,0,0-2.95,1.58,6.57,6.57,0,0,0-1.14,4v6.42h-2V95.53h2a17.64,17.64,0,0,1-.22,3l.05,0a4.73,4.73,0,0,1,4.81-3.27c2.67,0,4,1.44,4,4.31v9.34Z"/><path class="cls-4" d="M337,108.73a1.52,1.52,0,0,1-2.1,0,1.41,1.41,0,0,1-.42-1,1.47,1.47,0,1,1,2.94,0A1.41,1.41,0,0,1,337,108.73Z"/><path class="cls-4" d="M352.08,108.37a10.61,10.61,0,0,1-4.11.75q-5.79,0-5.8-6.41a8.09,8.09,0,0,1,1.64-5.34,5.83,5.83,0,0,1,4.75-2,9.1,9.1,0,0,1,3.43.59l-.4,1.72a8.92,8.92,0,0,0-3.27-.64,3.45,3.45,0,0,0-3,1.49,6.38,6.38,0,0,0-1,3.84c0,3.37,1.35,5.05,4.07,5.05a7.83,7.83,0,0,0,3.32-.7Z"/><path class="cls-4" d="M366.8,107.09a5.84,5.84,0,0,1-4.66,2.09,5.55,5.55,0,0,1-4.32-1.68,7.52,7.52,0,0,1-1.59-5.2,7.33,7.33,0,0,1,1.67-4.94,5.89,5.89,0,0,1,4.71-2.07,5.69,5.69,0,0,1,4.19,1.52,7.06,7.06,0,0,1,1.73,5.2A7.52,7.52,0,0,1,366.8,107.09ZM362.4,97a3.66,3.66,0,0,0-2.82,1.23,5.77,5.77,0,0,0-1.25,3.94q0,5.31,4.1,5.31a3.54,3.54,0,0,0,2.8-1.26,6.07,6.07,0,0,0,1.22-4Q366.45,97,362.4,97Z"/><path class="cls-4" d="M391,108.94v-8.63c0-2.23-.81-3.34-2.42-3.34a3.42,3.42,0,0,0-2.78,1.5,6.53,6.53,0,0,0-1.24,4.11v6.36h-2v-8.66c0-2.21-.81-3.31-2.42-3.31a3.44,3.44,0,0,0-2.85,1.56,6.7,6.7,0,0,0-1.17,4v6.36h-2V95.53h2a15.74,15.74,0,0,1-.22,3l0,0a4.68,4.68,0,0,1,4.73-3.27,3.66,3.66,0,0,1,3,1.21,3.41,3.41,0,0,1,.75,2,4.63,4.63,0,0,1,4.68-3.2c2.64,0,4,1.46,4,4.36v9.29Z"/><path class="cls-4" d="M401.59,108.73a1.5,1.5,0,0,1-1.06.42,1.45,1.45,0,0,1-1-.42,1.41,1.41,0,0,1-.42-1,1.43,1.43,0,0,1,1.46-1.46,1.5,1.5,0,0,1,1.06.42,1.45,1.45,0,0,1,.42,1A1.41,1.41,0,0,1,401.59,108.73Z"/><path class="cls-4" d="M414.23,108a6.33,6.33,0,0,1-4.09,1.23,11.1,11.1,0,0,1-3-.35l.25-1.87a8.32,8.32,0,0,0,3,.52,3.91,3.91,0,0,0,2.3-.61,1.9,1.9,0,0,0,.91-1.66,1.8,1.8,0,0,0-1-1.65,14.79,14.79,0,0,0-2.26-.79,6.22,6.22,0,0,1-2.25-1,3.13,3.13,0,0,1-1-2.49,3.46,3.46,0,0,1,1.31-2.82,6.06,6.06,0,0,1,3.87-1.12,13.73,13.73,0,0,1,2.65.29l-.19,1.7a9.59,9.59,0,0,0-2.67-.39c-1.92,0-2.88.7-2.88,2.12a1.78,1.78,0,0,0,1,1.64,15.62,15.62,0,0,0,2.27.81,7,7,0,0,1,2.25,1.06,3,3,0,0,1,1,2.43A3.67,3.67,0,0,1,414.23,108Z"/><path class="cls-4" d="M429.05,108.94a19.3,19.3,0,0,1,.14-2.83h-.06a4.65,4.65,0,0,1-1.71,2.17,5.07,5.07,0,0,1-2.95.9,3.66,3.66,0,0,1-2.63-1,3.35,3.35,0,0,1-1-2.59,3.69,3.69,0,0,1,2.1-3.31,12.26,12.26,0,0,1,6.07-1.25v-.67a4.06,4.06,0,0,0-.67-2.62,2.87,2.87,0,0,0-2.35-.86,9,9,0,0,0-4,1l-.44-1.65a12.41,12.41,0,0,1,4.76-1c3.16,0,4.74,1.57,4.74,4.69v4.94c0,1.89,0,3.23.05,4Zm-.08-6.39q-6.15,0-6.15,2.78a2.11,2.11,0,0,0,2.22,2.21,3.5,3.5,0,0,0,2.84-1.47,5,5,0,0,0,1.09-3.2Z"/><path class="cls-4" d="M524.39,1.63a48.15,48.15,0,0,0-4.3,5.53c1.15,1.85,4.3,3.92,4.3,3.92l.38-.15a18,18,0,0,1,3.91-5.07A38.53,38.53,0,0,0,524.39,1.63Z"/><path class="cls-4" d="M514.9,2.73a49.47,49.47,0,0,0-4.31,5.54c1.16,1.85,4.31,3.92,4.31,3.92l.37-.15A18.25,18.25,0,0,1,519.18,7,38.72,38.72,0,0,0,514.9,2.73Z"/><path class="cls-4" d="M514.26,43.42A15.86,15.86,0,0,0,523.12,41s3.31-5.12,3.31-8.17a32.77,32.77,0,0,0-3.16-14.28l-3.68,5s5.4,6,6,10.13c0,0-3.4,3.73-11.29,3.73-9.43,0-10.81-2.46-11.18-4.55l-1.86,2.34S502.53,43.42,514.26,43.42Z"/><polygon class="cls-4" points="476.48 11.47 476.93 10.88 471.82 0.06 468.14 4.36 476.48 11.47"/><path class="cls-4" d="M473.35,29.36V3.3L471.82.06l-3.68,4.3s3.74,17.84,3.61,24.42c-.11,5.73-2.36,6.69-2.36,6.69l.55,1S473.35,34.79,473.35,29.36Z"/><path class="cls-4" d="M505.61,26.28s-1.81-4.74-8.08-4.74-14,5.6-19.48,8.72S463.78,39,463.78,39c-8.87.39-15.68.33-20.82.07-.5-8.89-3.49-16.07-7.69-16.07-4,0-7.48,6.25-8.1,10.08-1,6.17.28,9.85,4.84,10.59,1.18.19,4.55.55,9.35.85C439,48.41,430.57,54.68,414,56.71v1.07A94.43,94.43,0,0,1,428,59.61s13.08-2.09,14.81-15c14,.76,38.22.79,56.4-5C506.08,33.41,505.61,26.28,505.61,26.28ZM428.9,37.2l-.22-.77s1.92-6.6,6.52-6.6c2.73,0,5.55,4.26,6.52,9.17C432.18,38.44,428.9,37.2,428.9,37.2Zm73-4.21s-10,5-31.7,5.45c0,0,10.15-5.36,15-8S496,25.28,502,32.19Z"/><path class="cls-4" d="M367.61,50.45A50,50,0,0,0,363.3,56c1.16,1.86,4.31,3.92,4.31,3.92l.37-.15a17.9,17.9,0,0,1,3.91-5.06A38.72,38.72,0,0,0,367.61,50.45Z"/><path class="cls-4" d="M358.11,51.56a48.15,48.15,0,0,0-4.3,5.53C355,59,358.11,61,358.11,61l.38-.15a17.9,17.9,0,0,1,3.91-5.06A39.2,39.2,0,0,0,358.11,51.56Z"/><path class="cls-4" d="M39.31,11A48.57,48.57,0,0,0,35,16.53c1.15,1.85,4.3,3.92,4.3,3.92l.38-.16a17.9,17.9,0,0,1,3.91-5.06A39.2,39.2,0,0,0,39.31,11Z"/><path class="cls-4" d="M246.37,48.68a48.57,48.57,0,0,0-4.3,5.54c1.15,1.85,4.3,3.92,4.3,3.92l.38-.15a18,18,0,0,1,3.91-5.07A39.2,39.2,0,0,0,246.37,48.68Z"/><path class="cls-4" d="M219.38,4.24a49,49,0,0,0-4.31,5.53c1.16,1.85,4.31,3.92,4.31,3.92l.37-.15a18.25,18.25,0,0,1,3.91-5.07A39,39,0,0,0,219.38,4.24Z"/><path class="cls-4" d="M209.89,5.35a47.86,47.86,0,0,0-4.31,5.53c1.15,1.85,4.31,3.92,4.31,3.92l.37-.15a18,18,0,0,1,3.91-5.07A38.07,38.07,0,0,0,209.89,5.35Z"/><path class="cls-4" d="M193.65,0a50,50,0,0,0-4.31,5.53c1.16,1.86,4.31,3.92,4.31,3.92L194,9.3a18.12,18.12,0,0,1,3.91-5.06A38.72,38.72,0,0,0,193.65,0Z"/><path class="cls-4" d="M184.16,1.11a50,50,0,0,0-4.31,5.53c1.16,1.86,4.31,3.92,4.31,3.92l.37-.15a17.9,17.9,0,0,1,3.91-5.06A38.72,38.72,0,0,0,184.16,1.11Z"/><path class="cls-4" d="M36.47,54.23c17.18,0,19.19-14.17,19.19-17.23,0-9.3-5-17.84-5-17.84l-3.68,5s7.22,9.59,7.78,13.69c0,0-2.28,10.35-18.3,10.35C22,48.2,26.18,32.31,29.83,27.58l-.75-.66s-4.61,6.7-4.61,13.42S26.53,54.23,36.47,54.23Z"/><path class="cls-4" d="M234.11,31.35V.53h-.56A20.72,20.72,0,0,1,229,6.17a177.68,177.68,0,0,1,3.45,30.64,5,5,0,0,0,1.91,3.91c1.68,1.32,4.77,2.71,10.3,2.71A15.82,15.82,0,0,0,253.49,41s3.31-5.12,3.31-8.17c0-8.76-3.43-13.34-3.43-13.34l-3.68,5s5.67,5.08,6.23,9.19c0,0-3.4,3.74-11.29,3.74A17.62,17.62,0,0,1,237.06,36,5.12,5.12,0,0,1,234.11,31.35Z"/><path class="cls-4" d="M127.09,46c47.47,0,70.26-5.65,70.26-17.68,0-2.12-.66-6.6-1.84-8.59s-2.77-3.32-4.52-3.32c-4,0-7.47,6.25-8.09,10.08a24.2,24.2,0,0,0,.07,8.21s2.18,8.7,24.78,8.7A15.86,15.86,0,0,0,216.61,41s3.31-5.12,3.31-8.17c0-8.85-3.44-13.34-3.44-13.34l-3.67,5s5.66,5.08,6.22,9.19c0,0-3.39,3.74-11.28,3.74-18.3,0-23.35-6.7-23.35-6.7v-.84s1.91-6.59,6.08-6.59c1.58,0,4.91,2,4.91,7.53,0,0-15.76,9.09-66.47,9.09-33.94,0-51.28-3.44-57.8-5.15A4.18,4.18,0,0,1,68,30.69V2.92h-.56a21,21,0,0,1-4.59,5.64,200.44,200.44,0,0,1,3.63,28.65,4.2,4.2,0,0,0,3,3.84C75.37,42.77,91.21,46,127.09,46Z"/><path class="cls-4" d="M230.28,48.92h.41s3.11-5.33-.34-5.33c-2.87,0-4.87,3.37-5.94,5.77A3.17,3.17,0,0,0,226,53.53a7.49,7.49,0,0,0,3.47.66c3.81-.18,2.73-4,2.73-4s-4.39,3.14-6.53-.59c0,0,1.12-2.62,3.61-2.62C230.81,47,230.28,48.92,230.28,48.92Z"/><path class="cls-4" d="M235.65,48.73l-.44,3.16s-6.65,2.21-10,7.27V58.09s.84-4.82,10.05-9.71Z"/><path class="cls-4" d="M420.78,28.87a32.52,32.52,0,0,0-3.16-14.29l-3.68,5s5.39,6,5.95,10.13c-.91,1.28-7.42,6-61.48,6C280.73,35.75,286.57,24,286.57,24H286a52.26,52.26,0,0,1-2.48,9.41s6,5.93,6,9.1-8.13,11.78-28.12,14.22v1.07a94.2,94.2,0,0,1,14.07,1.83s15-2.4,15-17.91a37.62,37.62,0,0,0-1.05-8s12.21,8.17,69.28,8.17c61.45,0,62-6.18,62-13Z"/><path class="cls-4" d="M369.56,6.27h-.8s-.92-2-2.5-2c-2.53,0-2.9,12.93-2.9,12.93l-1.65.91s-1-11-8.76-11c0,0-.1-4.15,2.54-4.15,3.56,0,6.95,10.92,6.95,10.92l.49-.23s-.15-12.4,3.56-12.4S369.56,6.27,369.56,6.27Z"/></svg>