<svg id="Layer_1" data-name="Layer 1" xmlns="http://www.w3.org/2000/svg" xmlns:xlink="http://www.w3.org/1999/xlink" viewBox="0 0 184.24 184.24"><defs><style>.cls-1,.cls-4{fill:none;}.cls-2{fill:#fff;fill-rule:evenodd;}.cls-3{fill:#08b;}.cls-4{stroke:#08b;stroke-linecap:round;stroke-linejoin:round;stroke-width:1.85px;}.cls-5{clip-path:url(#clip-path);}.cls-6{fill:#e6e6e6;}</style><clipPath id="clip-path"><polyline class="cls-1" points="402.22 -1370.17 -677.78 -1370.17 -677.78 -817.17 402.22 -817.17"/></clipPath></defs><path class="cls-2" d="M153.8,184.24H30.44A30.53,30.53,0,0,1,0,153.8V30.44A30.53,30.53,0,0,1,30.44,0H153.8a30.53,30.53,0,0,1,30.44,30.44V153.8a30.53,30.53,0,0,1-30.44,30.44"/><path class="cls-3" d="M110.64,63.33a7.64,7.64,0,0,0-2.12,8.34l-.48-.48a7.85,7.85,0,0,0-10.85-.39,7.63,7.63,0,0,0-.17,11L95.7,80.44a7.85,7.85,0,0,0-10.85-.39,7.64,7.64,0,0,0-.17,11L64.57,70.9a7.85,7.85,0,0,0-10.85-.39,7.64,7.64,0,0,0-.17,11L84,112a46.49,46.49,0,0,0-17.48,1.55,7.1,7.1,0,0,0-3.09,1.82,7.19,7.19,0,0,0-1.08,8.78,7.43,7.43,0,0,0,8.44,3.11c13.07-3.61,26.8,2.8,38.6,7.86,5.68,2.43,17.32,5.21,28.36-5.83l6.49-6.49c14.77-14.77,1.87-34-1.33-37.22l-1.25-1.25L125.9,68.49l-4.61-4.62a7.84,7.84,0,0,0-10.65-.54"/><path class="cls-4" d="M56,90.32a16,16,0,1,1,16-16"/><path class="cls-4" d="M56,93.77A19.43,19.43,0,1,1,75.44,74.34"/><g class="cls-5"><rect class="cls-6" x="-499.27" y="-72.39" width="723.39" height="241.01"/><path class="cls-2" d="M153.8,140.24H30.44A30.53,30.53,0,0,1,0,109.8V-13.56A30.53,30.53,0,0,1,30.44-44H153.8a30.53,30.53,0,0,1,30.44,30.44V109.8a30.53,30.53,0,0,1-30.44,30.44"/></g><g class="cls-5"><path class="cls-3" d="M110.64,19.33a7.64,7.64,0,0,0-2.12,8.34l-.48-.48a7.85,7.85,0,0,0-10.85-.39,7.63,7.63,0,0,0-.17,11L95.7,36.44a7.85,7.85,0,0,0-10.85-.39,7.64,7.64,0,0,0-.17,11L64.57,26.9a7.85,7.85,0,0,0-10.85-.39,7.64,7.64,0,0,0-.17,11L84,68A46.49,46.49,0,0,0,66.56,69.5a7.1,7.1,0,0,0-3.09,1.82,7.19,7.19,0,0,0-1.08,8.78,7.43,7.43,0,0,0,8.44,3.11c13.07-3.61,26.8,2.8,38.6,7.86,5.68,2.43,17.32,5.21,28.36-5.83l6.49-6.49c14.77-14.77,1.87-34-1.33-37.22l-1.25-1.25L125.9,24.49l-4.61-4.62a7.84,7.84,0,0,0-10.65-.54"/><path class="cls-4" d="M56,46.32a16,16,0,1,1,16-16"/><path class="cls-4" d="M56,49.77A19.43,19.43,0,1,1,75.44,30.34"/></g></svg>