<svg id="Layer_1" data-name="Layer 1" xmlns="http://www.w3.org/2000/svg" xmlns:xlink="http://www.w3.org/1999/xlink" viewBox="0 0 184.24 184.24"><defs><style>.cls-1{fill:none;}.cls-2{fill:#fff;}.cls-2,.cls-3{fill-rule:evenodd;}.cls-3{fill:#08b;}.cls-4{clip-path:url(#clip-path);}</style><clipPath id="clip-path"><polyline class="cls-1" points="402.22 -890.91 -677.78 -890.91 -677.78 -337.91 402.22 -337.91"/></clipPath></defs><path class="cls-2" d="M153.8,184.24H30.44A30.53,30.53,0,0,1,0,153.8V30.44A30.53,30.53,0,0,1,30.44,0H153.8a30.53,30.53,0,0,1,30.44,30.44V153.8a30.53,30.53,0,0,1-30.44,30.44"/><path class="cls-3" d="M132.18,108.45c-2.15-1.06-12.61-6.19-14.56-6.88s-3.38-1-4.8,1.06-5.54,6.88-6.76,8.26-2.48,1.59-4.63.53a57.69,57.69,0,0,1-17.13-10.5,63.09,63.09,0,0,1-11.84-14.6c-1.22-2.12-.12-3.26.94-4.31s2.11-2.49,3.21-3.71c.29-.36.53-.69.77-1a24.21,24.21,0,0,0,1.35-2.53,3.81,3.81,0,0,0-.17-3.7C78,70,73.76,59.59,72,55.36s-3.54-3.5-4.8-3.5-2.64-.2-4.07-.2a7.88,7.88,0,0,0-5.69,2.64C55.46,56.42,50,61.54,50,72a26.89,26.89,0,0,0,1.1,7.2A48.15,48.15,0,0,0,58.67,93.8C59.73,95.19,73.4,117.23,95,125.74s21.68,5.61,25.59,5.25,12.61-5.09,14.36-10.05,1.79-9.16,1.26-10-2-1.38-4.07-2.44"/><g class="cls-4"><path class="cls-2" d="M153.8,140.24H30.44A30.53,30.53,0,0,1,0,109.8V-13.56A30.53,30.53,0,0,1,30.44-44H153.8a30.53,30.53,0,0,1,30.44,30.44V109.8a30.53,30.53,0,0,1-30.44,30.44"/></g><g class="cls-4"><path class="cls-3" d="M132.18,64.45c-2.15-1.06-12.61-6.19-14.56-6.88s-3.38-1-4.8,1.06-5.54,6.88-6.76,8.26-2.48,1.59-4.63.53A57.69,57.69,0,0,1,84.3,56.92a63.09,63.09,0,0,1-11.84-14.6c-1.22-2.12-.12-3.26.94-4.31s2.11-2.49,3.21-3.71c.29-.36.53-.69.77-1a24.21,24.21,0,0,0,1.35-2.53,3.81,3.81,0,0,0-.17-3.7C78,26,73.76,15.59,72,11.36s-3.54-3.5-4.8-3.5-2.64-.2-4.07-.2a7.88,7.88,0,0,0-5.69,2.64C55.46,12.42,50,17.54,50,28a26.89,26.89,0,0,0,1.1,7.2A48.15,48.15,0,0,0,58.67,49.8C59.73,51.19,73.4,73.23,95,81.74s21.68,5.61,25.59,5.25,12.61-5.09,14.36-10,1.79-9.16,1.26-10-2-1.38-4.07-2.44"/></g></svg>