<svg id="Layer_1" data-name="Layer 1" xmlns="http://www.w3.org/2000/svg" xmlns:xlink="http://www.w3.org/1999/xlink" viewBox="0 0 1080 121.52"><defs><style>.cls-1,.cls-3{fill:none;}.cls-2{clip-path:url(#clip-path);}.cls-3{stroke:#404041;stroke-linecap:round;stroke-width:1.39px;}</style><clipPath id="clip-path"><rect class="cls-1" width="1080" height="121.52"/></clipPath></defs><g class="cls-2"><path class="cls-3" d="M1183-104.69C1054,50.23,939.54,60.89,723.63,133.48c-6.55,2.21-12.91,4.41-19.24,6.62m257.57,0c106.73-53.79,183.25-124.45,236-202.36M-408-58.65C-366.83,37.1-278.6,134.91-99.26,134.91c160.55,0,225.65-107.64,225.65-107.64s4.42,56.91,23.88,112.83M113.89-69.69S46.71,45.34-129,45.34c-117.87,0-212.54-52.47-258.84-135.46M201.22,140.1C167.56,105,156.17,20.21,148-76M332.33,140.1c12.71-41.84,30.15-80,82.65-80a19.14,19.14,0,0,1,11.14,3.63S434.83-46.2,424.78-46.2c-15.83,0-49.5,22.89-80.48,22.89s-41-13.17-41-13.17m-25.2-25.94c0,115.71,37,125.58,37,125.58s-13.66,49.72-42.15,76.94M676.85-137.62c6.5,69.67,23.51,197.68,114.42,197.68,53.74,0,74.79-40.6,86.68-70.94,7.09-18.07,14.1-32.5,14.1-32.5M560.36,129.18c9.24-14.13,16.24-26.57,16.24-26.57s21.55,15.17,38.08,26.57m27.5,0c5-7.65,11.37-17.5,17.38-25.54,11.56-15.52,27.94-30,27.94-37.15S625.66,17.12,620,17.12s-46.38,71-46.38,71-48.16-44.29-55.88-44.29C507,43.83,463.33,122,463.33,122a64.15,64.15,0,0,1,9.41,7.21"/></g></svg>