<svg id="l-bludar-logo" xmlns="http://www.w3.org/2000/svg" xmlns:xlink="http://www.w3.org/1999/xlink" width="79.488" height="79.49" viewBox="0 0 79.488 79.49">
  <defs>
    <clipPath id="clip-path">
      <path id="Path_66" data-name="Path 66" d="M0-36.839H79.488v-79.49H0Z" transform="translate(0 116.329)" fill="none"/>
    </clipPath>
  </defs>
  <path id="Path_55" data-name="Path 55" d="M0-36.839H79.488v-79.49H0Z" transform="translate(0 116.329)" fill="#2c254f"/>
  <g id="Group_58" data-name="Group 58" clip-path="url(#clip-path)">
    <g id="Group_48" data-name="Group 48" transform="translate(18.092 59.361)">
      <path id="Path_56" data-name="Path 56" d="M-1.413-.363A.308.308,0,0,1-1.477-.3a.146.146,0,0,1-.092.025.23.23,0,0,1-.13-.05,1.926,1.926,0,0,0-.178-.11,1.547,1.547,0,0,0-.262-.11,1.25,1.25,0,0,0-.378-.05,1.222,1.222,0,0,0-.523.106,1.012,1.012,0,0,0-.381.305A1.361,1.361,0,0,0-3.652.3a2.364,2.364,0,0,0-.079.635,2.312,2.312,0,0,0,.085.653,1.4,1.4,0,0,0,.235.48,1.013,1.013,0,0,0,.37.3,1.144,1.144,0,0,0,.489.1,1.258,1.258,0,0,0,.428-.062,1.3,1.3,0,0,0,.28-.138,2.188,2.188,0,0,0,.183-.137.22.22,0,0,1,.143-.062.151.151,0,0,1,.137.068l.2.26a1.539,1.539,0,0,1-.659.473,2.331,2.331,0,0,1-.836.15,1.774,1.774,0,0,1-.705-.139,1.611,1.611,0,0,1-.565-.406,1.922,1.922,0,0,1-.378-.653A2.632,2.632,0,0,1-4.461.939,2.664,2.664,0,0,1-4.335.1a1.892,1.892,0,0,1,.368-.661,1.66,1.66,0,0,1,.6-.434,2.012,2.012,0,0,1,.815-.156,1.93,1.93,0,0,1,.752.138,1.807,1.807,0,0,1,.579.389Z" transform="translate(4.461 1.146)" fill="#fff"/>
    </g>
    <g id="Group_49" data-name="Group 49" transform="translate(22.854 59.362)">
      <path id="Path_57" data-name="Path 57" d="M-.9,0A2.083,2.083,0,0,1-.1.148a1.687,1.687,0,0,1,.607.42A1.848,1.848,0,0,1,.9,1.225a2.6,2.6,0,0,1,.134.861A2.6,2.6,0,0,1,.9,2.949,1.851,1.851,0,0,1,.512,3.6,1.657,1.657,0,0,1-.1,4.021a2.108,2.108,0,0,1-.8.146,2.1,2.1,0,0,1-.8-.146,1.688,1.688,0,0,1-.61-.418,1.869,1.869,0,0,1-.387-.655,2.564,2.564,0,0,1-.136-.863,2.569,2.569,0,0,1,.136-.861A1.866,1.866,0,0,1-2.307.567,1.719,1.719,0,0,1-1.7.148,2.078,2.078,0,0,1-.9,0m0,3.612a1.039,1.039,0,0,0,.9-.4,1.858,1.858,0,0,0,.3-1.121A1.875,1.875,0,0,0,0,.963a1.037,1.037,0,0,0-.9-.4,1.246,1.246,0,0,0-.528.1,1,1,0,0,0-.374.3,1.345,1.345,0,0,0-.223.481,2.589,2.589,0,0,0-.074.646,2.555,2.555,0,0,0,.074.643A1.322,1.322,0,0,0-1.8,3.21a1.007,1.007,0,0,0,.374.3,1.246,1.246,0,0,0,.528.1" transform="translate(2.83)" fill="#fff"/>
    </g>
    <g id="Group_50" data-name="Group 50" transform="translate(28.631 59.362)">
      <path id="Path_58" data-name="Path 58" d="M0-1.905V-5.952H.424A.18.18,0,0,1,.615-5.8l.053.415a2.073,2.073,0,0,1,.5-.451,1.179,1.179,0,0,1,.646-.176.958.958,0,0,1,.665.228,1.282,1.282,0,0,1,.366.615,1.276,1.276,0,0,1,.222-.38,1.282,1.282,0,0,1,.31-.263,1.29,1.29,0,0,1,.366-.152,1.625,1.625,0,0,1,.394-.048,1.5,1.5,0,0,1,.569.1,1.139,1.139,0,0,1,.424.3,1.324,1.324,0,0,1,.265.482,2.121,2.121,0,0,1,.092.653v2.577H4.774V-4.482A1.091,1.091,0,0,0,4.567-5.2a.748.748,0,0,0-.6-.245.911.911,0,0,0-.333.061.794.794,0,0,0-.277.182.83.83,0,0,0-.19.3,1.173,1.173,0,0,0-.07.422v2.577H2.381V-4.482a1.14,1.14,0,0,0-.2-.728.7.7,0,0,0-.572-.239.9.9,0,0,0-.489.141,1.607,1.607,0,0,0-.413.385v3.017Z" transform="translate(0 6.016)" fill="#fff"/>
    </g>
    <g id="Group_51" data-name="Group 51" transform="translate(36.23 59.353)">
      <path id="Path_59" data-name="Path 59" d="M0-2.544V-7.962H.424a.18.18,0,0,1,.191.148l.061.479a2.15,2.15,0,0,1,.593-.507,1.512,1.512,0,0,1,.769-.192,1.468,1.468,0,0,1,.631.134,1.3,1.3,0,0,1,.483.4,1.891,1.891,0,0,1,.307.649,3.312,3.312,0,0,1,.108.891,2.789,2.789,0,0,1-.12.833,2.039,2.039,0,0,1-.343.667,1.6,1.6,0,0,1-.55.443,1.624,1.624,0,0,1-.733.162,1.506,1.506,0,0,1-.641-.124,1.46,1.46,0,0,1-.47-.351v1.79ZM1.8-7.459a1.146,1.146,0,0,0-.61.16,1.763,1.763,0,0,0-.482.452v1.958a1.158,1.158,0,0,0,.43.372,1.228,1.228,0,0,0,.521.108,1.02,1.02,0,0,0,.867-.4,1.886,1.886,0,0,0,.3-1.151,2.845,2.845,0,0,0-.07-.679,1.317,1.317,0,0,0-.2-.465.791.791,0,0,0-.324-.266A1.075,1.075,0,0,0,1.8-7.459" transform="translate(0 8.034)" fill="#fff"/>
    </g>
    <g id="Group_52" data-name="Group 52" transform="translate(41.384 59.362)">
      <path id="Path_60" data-name="Path 60" d="M-.9,0a2.086,2.086,0,0,1,.8.148,1.69,1.69,0,0,1,.607.42A1.848,1.848,0,0,1,.9,1.225a2.6,2.6,0,0,1,.134.861A2.6,2.6,0,0,1,.9,2.949,1.851,1.851,0,0,1,.512,3.6a1.66,1.66,0,0,1-.607.418,2.112,2.112,0,0,1-.8.146,2.106,2.106,0,0,1-.8-.146A1.679,1.679,0,0,1-2.306,3.6a1.871,1.871,0,0,1-.388-.655,2.564,2.564,0,0,1-.136-.863,2.569,2.569,0,0,1,.136-.861A1.868,1.868,0,0,1-2.306.567,1.71,1.71,0,0,1-1.7.148,2.08,2.08,0,0,1-.9,0m0,3.612a1.039,1.039,0,0,0,.9-.4,1.858,1.858,0,0,0,.3-1.121A1.875,1.875,0,0,0,0,.963a1.037,1.037,0,0,0-.9-.4,1.241,1.241,0,0,0-.527.1.988.988,0,0,0-.374.3,1.322,1.322,0,0,0-.223.481,2.556,2.556,0,0,0-.074.646,2.522,2.522,0,0,0,.074.643A1.3,1.3,0,0,0-1.8,3.21a1,1,0,0,0,.374.3,1.241,1.241,0,0,0,.527.1" transform="translate(2.83)" fill="#fff"/>
    </g>
    <g id="Group_53" data-name="Group 53" transform="translate(47.066 59.426)">
      <path id="Path_61" data-name="Path 61" d="M-.33,0V2.581a1.074,1.074,0,0,0,.212.711.787.787,0,0,0,.639.251A1.223,1.223,0,0,0,1.108,3.4a1.808,1.808,0,0,0,.508-.412V0h.711V4.047H1.9A.182.182,0,0,1,1.711,3.9l-.055-.436a2.233,2.233,0,0,1-.591.47,1.555,1.555,0,0,1-.751.177A1.461,1.461,0,0,1-.272,4,1.166,1.166,0,0,1-.7,3.692a1.3,1.3,0,0,1-.258-.484,2.152,2.152,0,0,1-.086-.627V0Z" transform="translate(1.041)" fill="#fff"/>
    </g>
    <g id="Group_54" data-name="Group 54" transform="translate(52.643 59.362)">
      <path id="Path_62" data-name="Path 62" d="M0-1.905V-5.952H.424A.18.18,0,0,1,.615-5.8l.057.44a2.261,2.261,0,0,1,.589-.472,1.534,1.534,0,0,1,.753-.179,1.465,1.465,0,0,1,.586.109,1.133,1.133,0,0,1,.423.312,1.377,1.377,0,0,1,.258.486,2.109,2.109,0,0,1,.088.627v2.577H2.657V-4.482A1.093,1.093,0,0,0,2.448-5.2a.787.787,0,0,0-.642-.254,1.2,1.2,0,0,0-.59.152,1.952,1.952,0,0,0-.5.411v2.981Z" transform="translate(0 6.016)" fill="#fff"/>
    </g>
    <g id="Group_55" data-name="Group 55" transform="translate(57.829 57.587)">
      <path id="Path_63" data-name="Path 63" d="M-1.457-2.728a.182.182,0,0,1-.192-.148l-.064-.492a2.139,2.139,0,0,1-.593.506,1.523,1.523,0,0,1-.765.19A1.468,1.468,0,0,1-3.7-2.805,1.326,1.326,0,0,1-4.187-3.2a1.892,1.892,0,0,1-.307-.647A3.34,3.34,0,0,1-4.6-4.737a2.789,2.789,0,0,1,.12-.833,2.029,2.029,0,0,1,.346-.669,1.608,1.608,0,0,1,.549-.446,1.618,1.618,0,0,1,.735-.162,1.462,1.462,0,0,1,.635.126,1.523,1.523,0,0,1,.471.353V-8.613h.711v5.885Zm-1.378-.519a1.143,1.143,0,0,0,.609-.16,1.744,1.744,0,0,0,.482-.452V-5.816a1.126,1.126,0,0,0-.429-.37,1.245,1.245,0,0,0-.518-.106,1.024,1.024,0,0,0-.871.4,1.882,1.882,0,0,0-.3,1.151A2.9,2.9,0,0,0-3.8-4.06a1.313,1.313,0,0,0,.2.464.794.794,0,0,0,.324.265,1.084,1.084,0,0,0,.439.084" transform="translate(4.602 8.613)" fill="#fff"/>
    </g>
    <g id="Group_56" data-name="Group 56" transform="translate(39.932 23.111)">
      <path id="Path_64" data-name="Path 64" d="M-.007-1.406c0,.166,0,.347-.015.5V-4.439Z" transform="translate(0.022 4.439)" fill="#fff"/>
    </g>
    <g id="Group_57" data-name="Group 57" transform="translate(9.99 20.923)">
      <path id="Path_65" data-name="Path 65" d="M-2.392,0V5.3A13.112,13.112,0,0,1-2.739,8.6,4.99,4.99,0,0,1-3.7,10.549a2.9,2.9,0,0,1-1.4.921,6.394,6.394,0,0,1-1.72.226l-.724-1.766a3.48,3.48,0,0,0,1.222-.2,1.958,1.958,0,0,0,.92-.74,4.113,4.113,0,0,0,.573-1.434,10.973,10.973,0,0,0,.2-2.339V.453Z" transform="translate(7.553)" fill="#fff"/>
    </g>
  </g>
  <g id="Group_59" data-name="Group 59" transform="translate(16.947 16.697)">
    <path id="Path_67" data-name="Path 67" d="M-1.035,0V11.5l-2.234.482V.468Z" transform="translate(3.269)" fill="#fff"/>
  </g>
  <g id="Group_68" data-name="Group 68" clip-path="url(#clip-path)">
    <g id="Group_60" data-name="Group 60" transform="translate(20.75 20.923)">
      <path id="Path_68" data-name="Path 68" d="M-5.274-2.623v2.1H-16.653l.815-1.872h8.345v-.3a3.433,3.433,0,0,0-1.1-2.853A4.785,4.785,0,0,0-11.582-6.4a10.868,10.868,0,0,0-1.57.106A6.377,6.377,0,0,0-14.6-5.9l.573-2.068c.347-.075.724-.15,1.177-.226a12.278,12.278,0,0,1,1.63-.09,9.708,9.708,0,0,1,2.49.3A4.778,4.778,0,0,1-6.858-6.969,4.548,4.548,0,0,1-5.681-5.2a7.244,7.244,0,0,1,.407,2.581" transform="translate(16.653 8.282)" fill="#fff"/>
    </g>
    <g id="Group_61" data-name="Group 61" transform="translate(64.336 30.551)">
      <path id="Path_69" data-name="Path 69" d="M-.937-.469a1.013,1.013,0,0,1-.3.724.968.968,0,0,1-.709.287A1,1,0,0,1-2.673.256a1,1,0,0,1-.286-.724.967.967,0,0,1,.286-.709,1.017,1.017,0,0,1,.724-.3.982.982,0,0,1,.709.3.979.979,0,0,1,.3.709" transform="translate(2.959 1.48)" fill="#fff"/>
    </g>
    <g id="Group_62" data-name="Group 62" transform="translate(33.608 16.621)">
      <path id="Path_70" data-name="Path 70" d="M-15.387-1.993V3.893h-3.094a3.847,3.847,0,0,1-3.169-1.147,5.276,5.276,0,0,1-.935-3.38V-6.3l-2.234.468V-.665l.015.03h-.015A10.383,10.383,0,0,0-24.5,2.111a3.513,3.513,0,0,1-1.766,1.373,7.981,7.981,0,0,1-2.657.408h-8.919a.624.624,0,0,0-.166-.015h-2.023c.015-.182.015-.378.015-.574V-1.39l-.407-.03-.076-.015c-.815-.2-8.089-1.826-8.089,3.169,0,3.667,3.637,4.12,6.082,4.015A3.865,3.865,0,0,1-43.036,7a1.957,1.957,0,0,1-.921.74,3.473,3.473,0,0,1-1.222.2l.724,1.766a6.4,6.4,0,0,0,1.721-.226,2.767,2.767,0,0,0,1.4-.921,4.99,4.99,0,0,0,.966-1.947,6.041,6.041,0,0,0,.181-.86h1.54c.03,0,.075.015.121.015h9.644a7.552,7.552,0,0,0,2.762-.528,4.607,4.607,0,0,0,1.931-1.464l-.03-1.011a3.611,3.611,0,0,0,.362.845c.061.106.136.211.212.317a.734.734,0,0,0,.165.211c0,.03.016.045.046.06A3.849,3.849,0,0,0-21.907,5.25a8.463,8.463,0,0,0,3.123.513h3.577l2.083-.437v-7.8Zm-26.879,5.72s-4.3.648-4.3-1.932c0-2.732,4.3-1.6,4.3-1.6l.015,3.033c0,.166,0,.347-.015.5" transform="translate(48.59 6.295)" fill="#fff"/>
    </g>
    <g id="Group_63" data-name="Group 63" transform="translate(9.987 38.143)">
      <path id="Path_71" data-name="Path 71" d="M-3.1-2.691a3.967,3.967,0,0,0,.945-.464A2.77,2.77,0,0,0-1.5-3.764a2.328,2.328,0,0,0,.373-.717,2.628,2.628,0,0,0,.12-.795A3.439,3.439,0,0,0-1.259-6.61a2.467,2.467,0,0,0-.792-1.015,3.9,3.9,0,0,0-1.4-.646A8.148,8.148,0,0,0-5.517-8.5H-9.784V3.522h4.656a6.085,6.085,0,0,0,1.893-.269A4.057,4.057,0,0,0-1.847,2.5,3.211,3.211,0,0,0-.99,1.367,3.411,3.411,0,0,0-.7-.048a2.445,2.445,0,0,0-.588-1.7A3.431,3.431,0,0,0-3.1-2.691M-7.3-6.61h1.781a4.1,4.1,0,0,1,.9.087,1.615,1.615,0,0,1,.629.277,1.13,1.13,0,0,1,.368.506,2.129,2.129,0,0,1,.121.762,1.754,1.754,0,0,1-.146.75,1.229,1.229,0,0,1-.418.5,1.863,1.863,0,0,1-.679.277,4.5,4.5,0,0,1-.928.087H-7.3ZM-3.247.535a1.326,1.326,0,0,1-.323.551,1.651,1.651,0,0,1-.617.385,2.815,2.815,0,0,1-.982.145H-7.3V-1.673h2.112a3.577,3.577,0,0,1,.948.108,1.645,1.645,0,0,1,.625.31,1.171,1.171,0,0,1,.348.493,1.887,1.887,0,0,1,.107.655,2.289,2.289,0,0,1-.091.642" transform="translate(9.784 8.499)" fill="#fff"/>
    </g>
    <g id="Group_64" data-name="Group 64" transform="translate(33.805 41.49)">
      <path id="Path_72" data-name="Path 72" d="M-3.181-.472A3.356,3.356,0,0,0-4.373-1.23a4.249,4.249,0,0,0-1.512-.261,4.323,4.323,0,0,0-1.74.336,3.919,3.919,0,0,0-1.308.907,3.912,3.912,0,0,0-.825,1.342,4.674,4.674,0,0,0-.286,1.64,5.442,5.442,0,0,0,.331,1.98,4.073,4.073,0,0,0,.907,1.429,3.786,3.786,0,0,0,1.35.87,4.664,4.664,0,0,0,1.669.295,7.2,7.2,0,0,0,.928-.063,4.821,4.821,0,0,0,.953-.223,4.34,4.34,0,0,0,.911-.439,3.627,3.627,0,0,0,.8-.7l-.663-.828a.488.488,0,0,0-.414-.2.886.886,0,0,0-.419.112l-.471.248a3.941,3.941,0,0,1-.605.249,2.648,2.648,0,0,1-.816.112,2.074,2.074,0,0,1-1.5-.556,2.693,2.693,0,0,1-.683-1.756h5.119a.732.732,0,0,0,.257-.038.3.3,0,0,0,.157-.136.777.777,0,0,0,.083-.265A2.977,2.977,0,0,0-2.124,2.4,4.614,4.614,0,0,0-2.4.75,3.406,3.406,0,0,0-3.181-.472M-7.733,1.906A2.358,2.358,0,0,1-7.128.58,1.735,1.735,0,0,1-5.844.116,1.8,1.8,0,0,1-5.09.261a1.457,1.457,0,0,1,.521.394,1.588,1.588,0,0,1,.3.572,2.386,2.386,0,0,1,.1.679Z" transform="translate(10.044 1.491)" fill="#fff"/>
    </g>
    <g id="Group_65" data-name="Group 65" transform="translate(43.456 38.143)">
      <path id="Path_73" data-name="Path 73" d="M-4.21-.785A5.685,5.685,0,0,0-6.153-2.032,6.8,6.8,0,0,0-8.671-2.48h-4.623V9.541h4.623a6.816,6.816,0,0,0,2.518-.447A5.728,5.728,0,0,0-4.21,7.851a5.511,5.511,0,0,0,1.251-1.9,6.466,6.466,0,0,0,.443-2.423,6.4,6.4,0,0,0-.443-2.411A5.552,5.552,0,0,0-4.21-.785M-5.316,5.233a3.619,3.619,0,0,1-.713,1.28,3.055,3.055,0,0,1-1.131.8,3.9,3.9,0,0,1-1.512.277h-2.122V-.533h2.122a3.848,3.848,0,0,1,1.512.282,3.119,3.119,0,0,1,1.131.8,3.582,3.582,0,0,1,.713,1.276,5.422,5.422,0,0,1,.248,1.7,5.446,5.446,0,0,1-.248,1.706" transform="translate(13.294 2.48)" fill="#fff"/>
    </g>
    <g id="Group_66" data-name="Group 66" transform="translate(55.153 41.457)">
      <path id="Path_74" data-name="Path 74" d="M-2.977-.436A2.911,2.911,0,0,0-4-1.127a3.525,3.525,0,0,0-1.363-.249,5.65,5.65,0,0,0-1.971.336A5.093,5.093,0,0,0-9-.026L-8.59.7a1.1,1.1,0,0,0,.269.286.655.655,0,0,0,.4.12A.988.988,0,0,0-7.439,1L-7,.757A3.958,3.958,0,0,1-6.445.517,2.379,2.379,0,0,1-5.657.405,1.249,1.249,0,0,1-4.68.782a1.729,1.729,0,0,1,.34,1.181V2.4a10.893,10.893,0,0,0-2.439.286,5.209,5.209,0,0,0-1.557.638,2.326,2.326,0,0,0-.825.858,2.069,2.069,0,0,0-.24.944A2.615,2.615,0,0,0-9.22,6.138a1.956,1.956,0,0,0,.518.733,2.245,2.245,0,0,0,.8.443,3.357,3.357,0,0,0,1.028.149,4.214,4.214,0,0,0,.824-.074,3.257,3.257,0,0,0,.692-.22,3.6,3.6,0,0,0,.625-.36c.171-.122.349-.267.53-.421V7.519l2.093-.437V1.963A3.906,3.906,0,0,0-2.335.621,3.047,3.047,0,0,0-2.977-.436M-4.341,5.085a2.981,2.981,0,0,1-.832.634,2.246,2.246,0,0,1-.99.2,1.274,1.274,0,0,1-.775-.207.824.824,0,0,1-.277-.7.827.827,0,0,1,.137-.46,1.156,1.156,0,0,1,.463-.377,3.355,3.355,0,0,1,.882-.269,10.627,10.627,0,0,1,1.392-.145Z" transform="translate(9.402 1.376)" fill="#fff"/>
    </g>
    <g id="Group_67" data-name="Group 67" transform="translate(64.233 41.197)">
      <path id="Path_75" data-name="Path 75" d="M-2-.121A1.935,1.935,0,0,0-3.247.3a3.828,3.828,0,0,0-.936,1.151l-.1-1.834-2,.426h-.051V8.624l2.29-.478V5.03h0V3.359a3.88,3.88,0,0,1,.286-.547,1.838,1.838,0,0,1,.344-.406,1.4,1.4,0,0,1,.435-.257,1.594,1.594,0,0,1,.56-.091,3.084,3.084,0,0,1,.464.037,2.711,2.711,0,0,0,.381.038.4.4,0,0,0,.236-.063.382.382,0,0,0,.128-.228L-1.06.153A1.533,1.533,0,0,0-2-.121" transform="translate(6.328 0.381)" fill="#fff"/>
    </g>
  </g>
  <g id="Group_69" data-name="Group 69" transform="translate(20.704 38.22)">
    <path id="Path_77" data-name="Path 77" d="M0-1.736V6.5l2.243-.478v-11.5L0-5Z" transform="translate(0 5.481)" fill="#fff"/>
  </g>
  <g id="Group_72" data-name="Group 72" clip-path="url(#clip-path)">
    <g id="Group_70" data-name="Group 70" transform="translate(24.791 41.107)">
      <path id="Path_78" data-name="Path 78" d="M-2.454-.239h0V5.9a3.3,3.3,0,0,1-.8.575,1.991,1.991,0,0,1-.9.212,1.192,1.192,0,0,1-.973-.394,1.68,1.68,0,0,1-.328-1.106V-.755l-2.286.488V5.187A4.28,4.28,0,0,0-7.557,6.5,2.962,2.962,0,0,0-7,7.523a2.48,2.48,0,0,0,.907.671,3.036,3.036,0,0,0,1.239.241,3.478,3.478,0,0,0,.782-.083A3.237,3.237,0,0,0-3.4,8.12a3.439,3.439,0,0,0,.584-.356c.125-.095.245-.2.365-.314V8.49l2.286-.478V-.755l-2.286.488Z" transform="translate(7.748 0.755)" fill="#fff"/>
    </g>
    <g id="Group_71" data-name="Group 71" transform="translate(47.129 18.489)">
      <path id="Path_79" data-name="Path 79" d="M0-1.425a4.564,4.564,0,0,0,3.125-.328c-1.143-.52-1.358-1.207-1.144-1.8a1.5,1.5,0,0,1,1.805-.884,1.207,1.207,0,0,1,.579,1.676A3.287,3.287,0,0,1,3.658-1.6,3.225,3.225,0,0,1,1-.643a2.113,2.113,0,0,1-.328-.09A2.461,2.461,0,0,1,.11-1.1ZM2.511-3.594c-.067.185.038.68,1.143,1.253.29-.665.106-1.312-.415-1.5a.584.584,0,0,0-.728.249" transform="translate(0 4.5)" fill="#fff"/>
    </g>
  </g>
</svg>
