<svg id="l-logo" xmlns="http://www.w3.org/2000/svg" xmlns:xlink="http://www.w3.org/1999/xlink" width="79.49" height="79.49" viewBox="0 0 79.49 79.49">
  <defs>
    <clipPath id="clip-path">
      <rect id="Rectangle_8" data-name="Rectangle 8" width="79.49" height="79.49" fill="none"/>
    </clipPath>
  </defs>
  <rect id="Rectangle_5" data-name="Rectangle 5" width="79.49" height="79.49" fill="#0078ae"/>
  <g id="Group_46" data-name="Group 46">
    <g id="Group_45" data-name="Group 45" clip-path="url(#clip-path)">
      <path id="Path_39" data-name="Path 39" d="M76.911,72.715s1.633,1.2,1.677,1.2.431-.689.773-1.168.825-.925.825-1.144a7.653,7.653,0,0,0-1.993-1.52,15.684,15.684,0,0,0-1.37,2.186A10.493,10.493,0,0,0,75.172,70.9c-.316,0-1.607,2.367-1.607,2.367a15.011,15.011,0,0,0,1.765,1.5c.466,0,1.582-2.061,1.582-2.061m7.662-13.484c.72,0,.579-1.626.579-2.128,0-.752-.171-1.152-.277-1.152s.3,1.8-.514,1.8S82.9,56.527,82.9,54.964a40.276,40.276,0,0,1,.7-4.314,13.625,13.625,0,0,0-1.028,4.4c0,1.563.264,4.185,2,4.185M71.062,50.593a13.216,13.216,0,0,0,1.97-3.368c.342-.67.751-1.869-.547-1.77a16.076,16.076,0,0,0-4.22.744,3.813,3.813,0,0,0-.251.767,13.8,13.8,0,0,0-.4,1.866c.063.083,2.914-.7,4.04-.7a.8.8,0,0,1,.348.062,8.09,8.09,0,0,1-1.395,1.262C69.113,50.528,66.9,51.863,66.76,52c-.085.085-.006.224-.006.224a25.789,25.789,0,0,0,4.308-1.634M62.086,73.718c-.2,0-.343,1.505-.343,1.38,0,.232.665.37,1.27.889a3.106,3.106,0,0,1,1.04,2.434,3.051,3.051,0,0,1-.281,1.638,3.749,3.749,0,0,0,.834-2.6,3.672,3.672,0,0,0-.3-1.709,4.427,4.427,0,0,0-2.224-2.029M56.893,60.653c-.3,0-1.607,2.381-1.607,2.381s1.125,1.05,1.976,1.828c.272.248.079.394.27.394a7.028,7.028,0,0,0,.957-.975,6.6,6.6,0,0,0,.895-1.012c0-.506-.639-1.07-1.278-1.6-.98-.811-1.014-1.018-1.212-1.018m17.014-4.091a26.11,26.11,0,0,0,.685-4.1c-.064-.18-.476-.323-.58-.323-.785,0-3.36,1.2-4.966,5.549a70.063,70.063,0,0,1-3.426,8.041L66,68.542a18.473,18.473,0,0,0,1.331-3.115c1.055-3.118,2.182-7.222,4.633-9.507a2.806,2.806,0,0,1,1.691-.967c.395,0,.163.921.118,1.493-.008.113.15.117.132.117M93.813,44.5a15.279,15.279,0,0,0-.31,3.694c-.1,2.667-.059,5.99-.059,5.99A37.093,37.093,0,0,0,91.839,49.7c-1.941-4.432-2.677-5.8-2.887-5.777S88,47.744,87.628,50.9a20.261,20.261,0,0,0,.019,4.948s.316-2.7.527-4.6.514-3.868.514-3.868.905,1.538,1.946,3.815a29.676,29.676,0,0,1,2.138,5.742c0,1.246-1.159,3.362-2.068,3.362-1.12,0-1.015-2.057-1.331-2.057-.355,0-.438,1.17-.465,2.2-.074,2.763-1.546,3.519-1.546,3.519s-.029-.279-.085-.6c-.077-.439-.184-.959-.337-.959s-.134.513-.094,1.028a4.135,4.135,0,0,1-.079,1.059,1.181,1.181,0,0,1-.473.787,7.405,7.405,0,0,1-1.243.744,7.282,7.282,0,0,1-.125-.759c-.063-.578-.119-1.275-.343-1.275-.838,0-.991,3.352-3.221,3.352-2.85,0-2.036-5.478-3.206-13.873-1.714-12.3-4.08-14.9-4.08-14.9l-.87,2.655a39.274,39.274,0,0,1,1.87,5.239,86.506,86.506,0,0,1,2.346,13.53c.252,2.407-1.459,4.027-2.358,4.027-1.331,0-.33-3.315-1.937-3.315s-3.767,3.879-3.767,6.6c0,3.564,1.093,3.868,1.093,3.868s-.764,2.9-2.384,2.9c-3.282,0-2.365-9.559-3.593-15.393-.784-3.72-1.742-4.7-1.742-4.7a10.506,10.506,0,0,0-.6,1.652c-.189.722-.226.767-.21.881a3.445,3.445,0,0,0,.208.508,18.769,18.769,0,0,1,1.256,3.826c.6,2.707.957,6.229.957,6.229a8.143,8.143,0,0,1-7.175,3.542c-4.98,0-8.562-3.3-8.562-7.933s3.485-7.859,6.146-9.011,8.089-2.281,10.2-5.243c1.456-2.046,1.265-3.19,1.265-3.19a7.3,7.3,0,0,1-2.635,3.778c-2.186,1.65-8.254,2.847-11.2,4.961a11.128,11.128,0,0,0-4.426,8.793c0,2.767,1.546,10.6,10.092,10.6a7.709,7.709,0,0,0,6.666-3.315s.5,6.772,3.9,6.772c3,0,1.361-5.761,4.8-5.761a.554.554,0,0,1,.329.112S73.993,67.8,73.7,67.8c-.468,0-1.463.705-2.379.705a1.48,1.48,0,0,1-1.212-.405s1.285-4.561,2.931-4.561c.885,0,.829,3.28,2.411,3.28,2.28,0,2.319-3.879,2.319-3.879s.105.551.177,1.353c.192,2.145.694,6.088,3.38,6.088a2.769,2.769,0,0,0,2.561-2.185c.21-.556.416-1,.416-1a2.375,2.375,0,0,1,.147.518c.084.518.193,1.239.624,1.239a3.69,3.69,0,0,0,1.741-1.131,3.186,3.186,0,0,0,.644-1.032.274.274,0,0,0,.171.059,3.09,3.09,0,0,0,1.551-2.132,11.2,11.2,0,0,0,.214-2.694c0-.833.147-.917.147-.917a5.7,5.7,0,0,1,.223.594c.213.673.6,1.679,1.4,1.679.445,0,1.792-.636,2.366-2.974a16.622,16.622,0,0,0,.3-3.774c0-2.578.6-8.01.6-8.01a14.787,14.787,0,0,1,3.03,9.185,15.218,15.218,0,0,1-1.686,7.278c-4.11,5.657-7.5,5.88-14.268,8.251-7.931,2.779-10.7,5.794-10.7,9.931,0,2.339.487,2.48.487,2.48s.3,0,.3-.517-.2-.243-.2-1.418c0-1.248.4-5.359,11.576-8.174,7.51-1.893,11.706-6.034,13.8-10.594a19.905,19.905,0,0,0,1.75-8.262c0-7.923-4.475-12.309-4.7-12.275" transform="translate(-33.49 -26.933)" fill="#fff"/>
      <path id="Path_40" data-name="Path 40" d="M218.679,58.752h.169c.2,0,.357-.065.357-.225,0-.141-.1-.235-.328-.235a.85.85,0,0,0-.2.019Zm-.009.873h-.357V58.086a3.127,3.127,0,0,1,.591-.047.957.957,0,0,1,.535.113.428.428,0,0,1,.15.338.394.394,0,0,1-.319.357v.019a.453.453,0,0,1,.281.375,1.182,1.182,0,0,0,.113.385h-.385a1.361,1.361,0,0,1-.122-.375c-.028-.169-.122-.244-.318-.244h-.17Zm-.947-.807a1.192,1.192,0,0,0,1.2,1.229,1.178,1.178,0,0,0,1.173-1.22,1.188,1.188,0,1,0-2.374-.009m2.768,0a1.581,1.581,0,1,1-1.577-1.539,1.546,1.546,0,0,1,1.577,1.539" transform="translate(-151.779 -40.003)" fill="#fff"/>
      <rect id="Rectangle_6" data-name="Rectangle 6" width="0.663" height="5.078" transform="translate(65.488 60.854)" fill="#fff"/>
      <path id="Path_41" data-name="Path 41" d="M167.461,201.764v4.552h-1.709c.028-.354.05-.736.05-1.059a8.11,8.11,0,0,0-.253-2.046l-.648.114a8.029,8.029,0,0,1,.237,1.988c0,.266-.022.692-.057,1h-.332c-.762,0-.951-.231-.951-.98V203.6h-.639v1.764c0,.613-.151,1-.67,1-.534,0-.679-.382-.679-1v-1.476h-.661v1.419c0,.778-.231,1.009-.743,1.009h-.936v-4.552h-.664v4.552h-1.7v-2.861h-.664v2.861h-2.061v-1.233c0-1.1-.506-1.707-1.584-1.707a1.708,1.708,0,0,0-1.757,1.881c0,.85-.268,1.059-.635,1.059h-.822v-4.552h-.664v5.077h1.457a.958.958,0,0,0,.958-.613c.224.389.67.613,1.5.613H160.4a.9.9,0,0,0,.973-.576.939.939,0,0,0,1.015.633,1.012,1.012,0,0,0,1.015-.633c.151.4.525.576,1.21.576h3.509v-5.077Zm-13.727,4.552h-.813c-.872,0-1.219-.36-1.219-1.125,0-.806.4-1.289,1.046-1.289s.987.36.987,1.289Z" transform="translate(-104.003 -140.909)" fill="#fff"/>
      <path id="Path_42" data-name="Path 42" d="M174.1,221.275a.382.382,0,1,1-.764,0,.386.386,0,0,1,.39-.382.374.374,0,0,1,.374.382" transform="translate(-121.056 -154.268)" fill="#fff"/>
      <path id="Path_43" data-name="Path 43" d="M170.589,221.275a.386.386,0,0,1-.382.389.385.385,0,1,1,.382-.389" transform="translate(-118.604 -154.268)" fill="#fff"/>
      <path id="Path_44" data-name="Path 44" d="M137.124,207.484a.392.392,0,1,1,.389.389.388.388,0,0,1-.389-.389" transform="translate(-95.765 -144.626)" fill="#fff"/>
      <path id="Path_45" data-name="Path 45" d="M135.356,207.373h.663v3.018c0,1.355-.648,2.032-1.9,2.032-.994,0-1.794-.533-1.794-2.01a5.316,5.316,0,0,1,.18-1.369l.684-.13a5.229,5.229,0,0,0-.2,1.434c0,1.232.627,1.549,1.2,1.549.684,0,1.174-.36,1.174-1.462Z" transform="translate(-92.413 -144.826)" fill="#fff"/>
      <rect id="Rectangle_7" data-name="Rectangle 7" width="0.663" height="5.078" transform="translate(36.387 60.854)" fill="#fff"/>
      <path id="Path_46" data-name="Path 46" d="M88.144,201.764v4.552H86.8a1.771,1.771,0,0,1-1.037-.347,1.966,1.966,0,0,0,.864-1.49c0-.584-.411-1.118-1.391-1.118a3.8,3.8,0,0,0-2.081.866l-.059.461a4.664,4.664,0,0,1,1.729,1.252,4.745,4.745,0,0,1-1.967.376h-.628c-.257,0-.626.022-.626.022a1.594,1.594,0,0,0,.563-1.29,1.476,1.476,0,0,0-1.606-1.672,1.676,1.676,0,0,0-1.745,1.758,1.418,1.418,0,0,0,.477,1.2s-.268-.022-.512-.022h-1.1v-4.552h-.664v5.077h5.787a5.281,5.281,0,0,0,2.443-.532,2.28,2.28,0,0,0,1.461.532h2.1v-5.077ZM80.5,206.316c-.648,0-1.009-.433-1.009-1.233a1.036,1.036,0,0,1,1.017-1.182c.661,0,.993.433.993,1.191,0,.841-.461,1.224-1,1.224m4.842-.686a5.326,5.326,0,0,0-1.564-1.2,2.791,2.791,0,0,1,1.391-.575c.556,0,.8.316.8.705a1.376,1.376,0,0,1-.626,1.066" transform="translate(-53.788 -140.909)" fill="#fff"/>
      <path id="Path_47" data-name="Path 47" d="M85.622,203a.382.382,0,1,1,.763,0,.385.385,0,0,1-.382.388.376.376,0,0,1-.382-.388" transform="translate(-59.797 -141.507)" fill="#fff"/>
      <path id="Path_48" data-name="Path 48" d="M89.132,203a.387.387,0,0,1,.389-.382A.374.374,0,0,1,89.9,203a.382.382,0,1,1-.764,0" transform="translate(-62.248 -141.507)" fill="#fff"/>
      <path id="Path_49" data-name="Path 49" d="M66.406,207.373h.663V210.8c0,1.023-.375,1.815-1.672,1.815a3.01,3.01,0,0,1-.749-.1l.08-.548a2.061,2.061,0,0,0,.72.123c.6,0,.958-.288.958-1.232Z" transform="translate(-45.149 -144.826)" fill="#fff"/>
      <path id="Path_50" data-name="Path 50" d="M58.867,221.275a.387.387,0,0,1-.382.389.385.385,0,1,1,.382-.389" transform="translate(-40.579 -154.268)" fill="#fff"/>
      <path id="Path_51" data-name="Path 51" d="M62.379,221.275a.382.382,0,1,1-.764,0,.385.385,0,0,1,.389-.382.374.374,0,0,1,.375.382" transform="translate(-43.031 -154.268)" fill="#fff"/>
      <path id="Path_52" data-name="Path 52" d="M49.628,207.19v2.861h-2.14v-2.687a4.481,4.481,0,0,0-1.448-.252,1.687,1.687,0,0,0-1.815,1.786c0,1.024.505,1.678,1.887,1.678h4.179V207.19Zm-2.788,2.861h-.633c-.929,0-1.312-.4-1.312-1.224a1.06,1.06,0,0,1,1.072-1.191,2.227,2.227,0,0,1,.872.167Z" transform="translate(-30.886 -144.643)" fill="#fff"/>
      <path id="Path_53" data-name="Path 53" d="M50.529,203a.387.387,0,0,1,.389-.382.374.374,0,0,1,.375.382.382.382,0,1,1-.764,0" transform="translate(-35.289 -141.507)" fill="#fff"/>
      <path id="Path_54" data-name="Path 54" d="M47.019,203a.382.382,0,1,1,.763,0,.385.385,0,0,1-.382.388.376.376,0,0,1-.382-.388" transform="translate(-32.837 -141.507)" fill="#fff"/>
    </g>
  </g>
</svg>
