<svg xmlns="http://www.w3.org/2000/svg" width="137.472" height="159.022" viewBox="0 0 137.472 159.022">
  <g id="logo-blue" transform="translate(-901 -1141.84)">
    <g id="Group_100" data-name="Group 100" transform="translate(901 1141.84)">
      <rect id="Rectangle_172" data-name="Rectangle 172" width="137.472" height="137.476" fill="#1c2351"/>
      <g id="Group_99" data-name="Group 99" transform="translate(17.273 28.748)">
        <path id="Path_1058" data-name="Path 1058" d="M29.308,80.22a.571.571,0,0,1-.111.117.254.254,0,0,1-.159.042.391.391,0,0,1-.224-.086,3.461,3.461,0,0,0-.309-.19,2.62,2.62,0,0,0-.452-.19,2.155,2.155,0,0,0-.653-.086,2.115,2.115,0,0,0-.9.182,1.752,1.752,0,0,0-.66.529,2.361,2.361,0,0,0-.4.837,4.142,4.142,0,0,0-.135,1.1,3.985,3.985,0,0,0,.146,1.13,2.426,2.426,0,0,0,.407.828,1.726,1.726,0,0,0,.639.512,1.976,1.976,0,0,0,.846.177,2.159,2.159,0,0,0,.739-.108,2.208,2.208,0,0,0,.484-.238,3.478,3.478,0,0,0,.316-.238.384.384,0,0,1,.25-.107.264.264,0,0,1,.236.117l.344.449a2.643,2.643,0,0,1-1.139.819,4.038,4.038,0,0,1-1.445.259,3.048,3.048,0,0,1-1.218-.242,2.773,2.773,0,0,1-.978-.7A3.306,3.306,0,0,1,24.274,84a4.552,4.552,0,0,1-.238-1.527,4.632,4.632,0,0,1,.217-1.445,3.279,3.279,0,0,1,.635-1.143,2.881,2.881,0,0,1,1.034-.75,3.481,3.481,0,0,1,1.409-.269,3.323,3.323,0,0,1,1.3.238,3.1,3.1,0,0,1,1,.674Z" transform="translate(-10.02 -4.95)" fill="#fff"/>
        <path id="Path_1059" data-name="Path 1059" d="M33.707,85.113a1.8,1.8,0,0,0,1.548-.7,3.947,3.947,0,0,0,0-3.887,1.794,1.794,0,0,0-1.548-.7,2.149,2.149,0,0,0-.913.18,1.715,1.715,0,0,0-.646.518,2.284,2.284,0,0,0-.387.833,4.429,4.429,0,0,0-.129,1.116,4.369,4.369,0,0,0,.129,1.112,2.252,2.252,0,0,0,.387.827,1.718,1.718,0,0,0,.646.514,2.149,2.149,0,0,0,.913.181m0-6.247a3.6,3.6,0,0,1,1.385.255,2.927,2.927,0,0,1,1.051.725,3.206,3.206,0,0,1,.663,1.138,4.91,4.91,0,0,1,0,2.981,3.212,3.212,0,0,1-.663,1.134,2.87,2.87,0,0,1-1.051.721,3.925,3.925,0,0,1-2.77,0,2.918,2.918,0,0,1-1.054-.721,3.247,3.247,0,0,1-.67-1.134,4.858,4.858,0,0,1,0-2.981,3.241,3.241,0,0,1,.67-1.138,2.977,2.977,0,0,1,1.054-.725,3.588,3.588,0,0,1,1.385-.255" transform="translate(-8.111 -4.95)" fill="#fff"/>
        <path id="Path_1060" data-name="Path 1060" d="M38.038,85.976v-7h.732a.316.316,0,0,1,.333.255l.09.719a3.593,3.593,0,0,1,.866-.781,2.054,2.054,0,0,1,1.117-.3,1.656,1.656,0,0,1,1.151.394,2.216,2.216,0,0,1,.631,1.064,2.215,2.215,0,0,1,1.552-1.375,2.794,2.794,0,0,1,.681-.083,2.6,2.6,0,0,1,.985.176,1.938,1.938,0,0,1,.732.516,2.276,2.276,0,0,1,.46.832,3.667,3.667,0,0,1,.159,1.13v4.457H46.3V81.519a1.887,1.887,0,0,0-.359-1.247,1.292,1.292,0,0,0-1.043-.426,1.555,1.555,0,0,0-.577.108,1.375,1.375,0,0,0-.48.315,1.456,1.456,0,0,0-.329.521,2.024,2.024,0,0,0-.12.729v4.457h-1.23V81.519a1.965,1.965,0,0,0-.338-1.257,1.206,1.206,0,0,0-.989-.415,1.551,1.551,0,0,0-.845.246,2.749,2.749,0,0,0-.716.666v5.217Z" transform="translate(-5.795 -4.95)" fill="#fff"/>
        <path id="Path_1061" data-name="Path 1061" d="M51.25,79.851a1.99,1.99,0,0,0-1.054.276,3.1,3.1,0,0,0-.833.781v3.386a1.99,1.99,0,0,0,.745.643,2.132,2.132,0,0,0,.9.186,1.764,1.764,0,0,0,1.5-.7,3.259,3.259,0,0,0,.525-1.99,4.962,4.962,0,0,0-.12-1.174,2.277,2.277,0,0,0-.35-.806A1.354,1.354,0,0,0,52,80a1.847,1.847,0,0,0-.752-.146m-3.116,8.5V78.98h.732a.314.314,0,0,1,.332.256l.1.828a3.746,3.746,0,0,1,1.027-.877,2.623,2.623,0,0,1,1.33-.331,2.517,2.517,0,0,1,1.091.232,2.242,2.242,0,0,1,.836.683,3.292,3.292,0,0,1,.532,1.122,5.754,5.754,0,0,1,.186,1.541,4.838,4.838,0,0,1-.207,1.441,3.516,3.516,0,0,1-.594,1.153,2.754,2.754,0,0,1-2.219,1.048,2.609,2.609,0,0,1-1.109-.215,2.526,2.526,0,0,1-.812-.608v3.1Z" transform="translate(-2.748 -4.953)" fill="#fff"/>
        <path id="Path_1062" data-name="Path 1062" d="M58.326,85.113a1.8,1.8,0,0,0,1.548-.7,3.947,3.947,0,0,0,0-3.887,1.8,1.8,0,0,0-1.548-.7,2.139,2.139,0,0,0-.911.18,1.709,1.709,0,0,0-.647.518,2.305,2.305,0,0,0-.387.833,4.43,4.43,0,0,0-.129,1.116,4.369,4.369,0,0,0,.129,1.112,2.273,2.273,0,0,0,.387.827,1.712,1.712,0,0,0,.647.514,2.139,2.139,0,0,0,.911.181m0-6.247a3.6,3.6,0,0,1,1.386.255,2.934,2.934,0,0,1,1.049.725,3.228,3.228,0,0,1,.664,1.138,4.936,4.936,0,0,1,0,2.981,3.234,3.234,0,0,1-.664,1.134,2.876,2.876,0,0,1-1.049.721,3.928,3.928,0,0,1-2.771,0,2.9,2.9,0,0,1-1.053-.721,3.249,3.249,0,0,1-.672-1.134,4.858,4.858,0,0,1,0-2.981,3.243,3.243,0,0,1,.672-1.138,2.96,2.96,0,0,1,1.053-.725,3.588,3.588,0,0,1,1.385-.255" transform="translate(-0.682 -4.95)" fill="#fff"/>
        <path id="Path_1063" data-name="Path 1063" d="M63.76,78.951v4.464a1.855,1.855,0,0,0,.367,1.23,1.359,1.359,0,0,0,1.1.435,2.111,2.111,0,0,0,1.015-.255,3.136,3.136,0,0,0,.879-.712V78.951h1.23v7h-.733a.314.314,0,0,1-.332-.255l-.1-.754a3.884,3.884,0,0,1-1.022.812,2.694,2.694,0,0,1-1.3.307,2.528,2.528,0,0,1-1.013-.19,2.024,2.024,0,0,1-.737-.535,2.272,2.272,0,0,1-.445-.837,3.734,3.734,0,0,1-.148-1.084V78.951Z" transform="translate(1.596 -4.924)" fill="#fff"/>
        <path id="Path_1064" data-name="Path 1064" d="M69.94,85.976v-7h.732a.316.316,0,0,1,.333.255l.1.76a3.931,3.931,0,0,1,1.019-.815,2.654,2.654,0,0,1,1.3-.311,2.535,2.535,0,0,1,1.011.19,1.965,1.965,0,0,1,.733.539,2.4,2.4,0,0,1,.445.84,3.644,3.644,0,0,1,.152,1.084v4.457h-1.23V81.519a1.881,1.881,0,0,0-.363-1.233,1.355,1.355,0,0,0-1.109-.44,2.079,2.079,0,0,0-1.019.263,3.374,3.374,0,0,0-.873.712v5.155Z" transform="translate(3.832 -4.95)" fill="#fff"/>
        <path id="Path_1065" data-name="Path 1065" d="M79.884,85.789a1.971,1.971,0,0,0,1.053-.277,3.015,3.015,0,0,0,.833-.78V81.346a1.941,1.941,0,0,0-.743-.639,2.138,2.138,0,0,0-.894-.184,1.773,1.773,0,0,0-1.506.7,3.261,3.261,0,0,0-.526,1.99,5.006,5.006,0,0,0,.118,1.172,2.261,2.261,0,0,0,.345.8,1.362,1.362,0,0,0,.56.458,1.868,1.868,0,0,0,.76.146m2.384.9a.314.314,0,0,1-.332-.255l-.109-.85a3.7,3.7,0,0,1-1.027.873,2.627,2.627,0,0,1-1.323.328,2.519,2.519,0,0,1-1.092-.232,2.256,2.256,0,0,1-.836-.68,3.267,3.267,0,0,1-.532-1.12,5.793,5.793,0,0,1-.186-1.541,4.844,4.844,0,0,1,.207-1.441,3.508,3.508,0,0,1,.6-1.157,2.742,2.742,0,0,1,2.221-1.051,2.546,2.546,0,0,1,1.1.217,2.647,2.647,0,0,1,.815.612V76.509H83V86.687Z" transform="translate(5.911 -5.661)" fill="#fff"/>
        <path id="Path_1066" data-name="Path 1066" d="M53.078,35.951c0,.288,0,.6-.026.862V30.7Z" transform="translate(-1.264 -19.483)" fill="#fff"/>
        <path id="Path_1067" data-name="Path 1067" d="M22.2,27.8V36.96a22.65,22.65,0,0,1-.6,5.716,8.638,8.638,0,0,1-1.67,3.366A5.013,5.013,0,0,1,17.5,47.635a11.1,11.1,0,0,1-2.976.391l-1.252-3.054a6.005,6.005,0,0,0,2.114-.338,3.389,3.389,0,0,0,1.592-1.28,7.115,7.115,0,0,0,.992-2.48,19.039,19.039,0,0,0,.338-4.046V28.582Z" transform="translate(-13.268 -20.36)" fill="#fff"/>
        <path id="Path_1068" data-name="Path 1068" d="M26.378,22.183v19.89l-3.864.834V22.993Z" transform="translate(-10.479 -22.054)" fill="#fff"/>
        <path id="Path_1069" data-name="Path 1069" d="M47.248,37.586v3.628H27.568l1.408-3.236H43.412v-.522c0-2.3-.653-3.942-1.906-4.934a8.275,8.275,0,0,0-5.168-1.462,18.569,18.569,0,0,0-2.714.184,11.009,11.009,0,0,0-2.506.678l.991-3.576c.6-.13,1.254-.26,2.037-.392a21.207,21.207,0,0,1,2.818-.156,16.757,16.757,0,0,1,4.306.522,8.261,8.261,0,0,1,3.237,1.748,7.863,7.863,0,0,1,2.036,3.054,12.518,12.518,0,0,1,.7,4.464" transform="translate(-8.954 -20.36)" fill="#fff"/>
        <path id="Path_1070" data-name="Path 1070" d="M88.972,42.338a1.758,1.758,0,0,1-.522,1.254,1.675,1.675,0,0,1-1.226.495,1.694,1.694,0,0,1-1.75-1.748,1.674,1.674,0,0,1,.5-1.226,1.758,1.758,0,0,1,1.254-.522,1.783,1.783,0,0,1,1.748,1.748" transform="translate(8.519 -16.5)" fill="#fff"/>
        <path id="Path_1071" data-name="Path 1071" d="M55.588,39.414s-7.44,1.122-7.44-3.34c0-4.725,7.44-2.768,7.44-2.768l.026,5.246c0,.288,0,.6-.026.862m46.486-9.892V39.7H96.723c-2.584,0-4.41-.653-5.48-1.984a9.131,9.131,0,0,1-1.618-5.847V22.084l-3.864.808v8.926l.026.052H85.76a18,18,0,0,0,.548,4.751A6.073,6.073,0,0,1,83.255,39a13.8,13.8,0,0,1-4.594.706H63.235a1.068,1.068,0,0,0-.286-.026h-3.5c.026-.314.026-.653.026-.992V30.566l-.7-.052-.131-.026c-1.409-.34-13.99-3.158-13.99,5.48,0,6.343,6.29,7.126,10.519,6.944a6.685,6.685,0,0,1-.914,2.166,3.389,3.389,0,0,1-1.592,1.28,6.01,6.01,0,0,1-2.114.338L51.8,49.75a11.1,11.1,0,0,0,2.976-.391,4.788,4.788,0,0,0,2.428-1.593,8.638,8.638,0,0,0,1.67-3.366,10.64,10.64,0,0,0,.312-1.488h2.663c.052,0,.13.026.208.026H78.739a13.059,13.059,0,0,0,4.777-.914,7.994,7.994,0,0,0,3.34-2.532L86.8,37.744a6.188,6.188,0,0,0,.626,1.462c.105.182.236.364.366.548a1.266,1.266,0,0,0,.286.364c0,.053.027.079.079.105A6.677,6.677,0,0,0,90.8,42.05a14.649,14.649,0,0,0,5.4.888h6.186l3.6-.758V28.687Z" transform="translate(-3.799 -22.084)" fill="#fff"/>
        <path id="Path_1072" data-name="Path 1072" d="M24.573,66.3a2.292,2.292,0,0,1-.558.953,2.851,2.851,0,0,1-1.067.667,4.9,4.9,0,0,1-1.7.25H17.567V62.483H21.22a6.217,6.217,0,0,1,1.642.186,2.814,2.814,0,0,1,1.08.538,2.006,2.006,0,0,1,.6.853,3.247,3.247,0,0,1,.186,1.131,3.953,3.953,0,0,1-.158,1.11M17.567,53.943h3.081a7.093,7.093,0,0,1,1.561.151,2.8,2.8,0,0,1,1.09.479,1.948,1.948,0,0,1,.637.875,3.681,3.681,0,0,1,.208,1.317,3.045,3.045,0,0,1-.251,1.3,2.132,2.132,0,0,1-.722.866,3.221,3.221,0,0,1-1.175.48,7.72,7.72,0,0,1-1.605.15H17.567Zm7.264,6.777a6.872,6.872,0,0,0,1.634-.8,4.756,4.756,0,0,0,1.123-1.053,4.046,4.046,0,0,0,.646-1.239,4.57,4.57,0,0,0,.208-1.376,5.97,5.97,0,0,0-.43-2.307,4.269,4.269,0,0,0-1.369-1.755,6.762,6.762,0,0,0-2.421-1.118,14.12,14.12,0,0,0-3.573-.394h-7.38v20.79H21.32A10.524,10.524,0,0,0,24.6,71a6.975,6.975,0,0,0,2.4-1.3,5.523,5.523,0,0,0,1.483-1.963,5.894,5.894,0,0,0,.509-2.45,4.222,4.222,0,0,0-1.018-2.937,5.928,5.928,0,0,0-3.137-1.634" transform="translate(-13.269 -13.456)" fill="#fff"/>
        <path id="Path_1073" data-name="Path 1073" d="M48.91,61a4.077,4.077,0,0,1,1.045-2.292,3,3,0,0,1,2.221-.8,3.109,3.109,0,0,1,1.3.25,2.538,2.538,0,0,1,.9.681,2.708,2.708,0,0,1,.523.989A4.1,4.1,0,0,1,55.071,61Zm7.873-4.112a5.794,5.794,0,0,0-2.063-1.311,7.354,7.354,0,0,0-2.614-.45,7.472,7.472,0,0,0-3.01.579,6.662,6.662,0,0,0-3.689,3.89,8.1,8.1,0,0,0-.495,2.838,9.4,9.4,0,0,0,.574,3.424,7.038,7.038,0,0,0,1.569,2.472,6.55,6.55,0,0,0,2.335,1.5,8.076,8.076,0,0,0,2.886.508,12.521,12.521,0,0,0,1.605-.107,8.411,8.411,0,0,0,1.648-.388,7.463,7.463,0,0,0,1.576-.759,6.283,6.283,0,0,0,1.39-1.211l-1.147-1.432a.843.843,0,0,0-.716-.345,1.546,1.546,0,0,0-.725.194c-.242.129-.515.272-.816.43a6.793,6.793,0,0,1-1.045.43,4.586,4.586,0,0,1-1.411.194,3.594,3.594,0,0,1-2.6-.959,4.669,4.669,0,0,1-1.182-3.038h8.855a1.266,1.266,0,0,0,.445-.065.512.512,0,0,0,.271-.236,1.3,1.3,0,0,0,.145-.458,5.124,5.124,0,0,0,.042-.732A7.975,7.975,0,0,0,58.13,59a5.9,5.9,0,0,0-1.347-2.114" transform="translate(-3.721 -12.114)" fill="#fff"/>
        <path id="Path_1074" data-name="Path 1074" d="M71.532,64.015A6.261,6.261,0,0,1,70.3,66.229a5.273,5.273,0,0,1-1.955,1.389,6.748,6.748,0,0,1-2.615.48H62.06V54.044h3.668a6.676,6.676,0,0,1,2.615.487A5.379,5.379,0,0,1,70.3,55.919a6.2,6.2,0,0,1,1.233,2.206,10.307,10.307,0,0,1,0,5.889m1.912-10.409a9.833,9.833,0,0,0-3.36-2.156,11.759,11.759,0,0,0-4.356-.775h-8V71.465h8a11.786,11.786,0,0,0,4.356-.773,9.877,9.877,0,0,0,3.36-2.149,9.513,9.513,0,0,0,2.163-3.288,11.777,11.777,0,0,0,0-8.36,9.611,9.611,0,0,0-2.163-3.288" transform="translate(0.148 -13.456)" fill="#fff"/>
        <path id="Path_1075" data-name="Path 1075" d="M82.028,66.255a5.183,5.183,0,0,1-1.44,1.1,3.882,3.882,0,0,1-1.712.35,2.2,2.2,0,0,1-1.341-.358,1.644,1.644,0,0,1-.242-2.013,1.993,1.993,0,0,1,.8-.652,5.8,5.8,0,0,1,1.526-.466,18.486,18.486,0,0,1,2.407-.25Zm2.357-9.55a5.048,5.048,0,0,0-1.763-1.2,6.123,6.123,0,0,0-2.357-.43,9.766,9.766,0,0,0-3.409.581,8.816,8.816,0,0,0-2.879,1.755l.7,1.26a1.891,1.891,0,0,0,.466.495,1.132,1.132,0,0,0,.694.208,1.725,1.725,0,0,0,.832-.194c.238-.129.495-.267.765-.415a6.643,6.643,0,0,1,.954-.415,4.1,4.1,0,0,1,1.36-.194,2.159,2.159,0,0,1,1.691.652,2.993,2.993,0,0,1,.587,2.041v.76a18.869,18.869,0,0,0-4.219.493,9.031,9.031,0,0,0-2.695,1.1,4.031,4.031,0,0,0-1.425,1.483,3.584,3.584,0,0,0-.415,1.634,4.532,4.532,0,0,0,.315,1.747,3.39,3.39,0,0,0,.9,1.269,3.88,3.88,0,0,0,1.384.765,5.78,5.78,0,0,0,1.776.259,7.2,7.2,0,0,0,1.425-.13,5.657,5.657,0,0,0,1.2-.379,6.282,6.282,0,0,0,1.082-.624c.3-.21.6-.462.916-.728v1.955l3.619-.756V60.852a6.732,6.732,0,0,0-.387-2.321,5.275,5.275,0,0,0-1.11-1.826" transform="translate(4.838 -12.128)" fill="#fff"/>
        <path id="Path_1076" data-name="Path 1076" d="M92.817,55.183a3.344,3.344,0,0,0-2.149.73,6.627,6.627,0,0,0-1.619,1.992l-.171-3.172-3.451.737h-.089V70.306l3.96-.827V64.093h-.007V61.2a6.745,6.745,0,0,1,.495-.946,3.238,3.238,0,0,1,.595-.7,2.425,2.425,0,0,1,.752-.444,2.745,2.745,0,0,1,.967-.158,5.429,5.429,0,0,1,.8.064,4.825,4.825,0,0,0,.659.065.692.692,0,0,0,.409-.108.665.665,0,0,0,.223-.393l.256-2.924a2.651,2.651,0,0,0-1.632-.473" transform="translate(8.478 -12.232)" fill="#fff"/>
        <path id="Path_1077" data-name="Path 1077" d="M27.507,57.255V71.5l3.878-.828V50.778l-3.878.827Z" transform="translate(-8.973 -13.425)" fill="#fff"/>
        <path id="Path_1078" data-name="Path 1078" d="M42.093,55.506h0V66.123a5.69,5.69,0,0,1-1.389,1,3.446,3.446,0,0,1-1.562.366,2.066,2.066,0,0,1-1.683-.681,2.91,2.91,0,0,1-.566-1.914V54.614l-3.955.844V64.89a7.39,7.39,0,0,0,.331,2.264,5.141,5.141,0,0,0,.959,1.777,4.3,4.3,0,0,0,1.569,1.161,5.261,5.261,0,0,0,2.143.415,6.067,6.067,0,0,0,1.354-.143,5.589,5.589,0,0,0,1.16-.4,5.873,5.873,0,0,0,1.01-.617c.217-.164.424-.353.631-.542v1.8l3.953-.825V54.614l-3.953.844Z" transform="translate(-7.334 -12.268)" fill="#fff"/>
        <path id="Path_1079" data-name="Path 1079" d="M13.611,115.052h2.842a5.469,5.469,0,0,1,2.817.553,1.922,1.922,0,0,1,.877,1.756,2.224,2.224,0,0,1-.384,1.343,1.54,1.54,0,0,1-1.021.63v.062a2,2,0,0,1,1.251.725,2.633,2.633,0,0,1-.518,3.357,3.9,3.9,0,0,1-2.449.7H13.611Zm1.936,3.615H16.67a2.049,2.049,0,0,0,1.139-.245.907.907,0,0,0,.353-.8.8.8,0,0,0-.384-.751,2.463,2.463,0,0,0-1.215-.228H15.547Zm0,1.535v2.38h1.261a1.858,1.858,0,0,0,1.179-.307,1.127,1.127,0,0,0,.38-.936q0-1.136-1.622-1.136Z" transform="translate(-13.166 5.97)" fill="#0078ad"/>
        <path id="Path_1080" data-name="Path 1080" d="M24,118.811l1.9-3.758h2.084l-3.027,5.574v3.551H23.042V120.69l-3.027-5.637h2.1Z" transform="translate(-11.233 5.97)" fill="#0078ad"/>
        <path id="Path_1081" data-name="Path 1081" d="M36.8,124.188l-.661-2.173H32.816l-.661,2.173H30.069l3.221-9.163h2.365l3.234,9.163Zm-1.123-3.8q-.918-2.95-1.034-3.339c-.077-.258-.133-.462-.165-.612q-.205.8-1.179,3.951Z" transform="translate(-8.199 5.962)" fill="#0078ad"/>
        <path id="Path_1082" data-name="Path 1082" d="M38.413,124.179v-9.127h1.936v7.529h3.7v1.6Z" transform="translate(-5.682 5.97)" fill="#0078ad"/>
        <path id="Path_1083" data-name="Path 1083" d="M50.166,121.674a2.36,2.36,0,0,1-.89,1.949,3.865,3.865,0,0,1-2.475.712,5.785,5.785,0,0,1-2.584-.552v-1.8a10.63,10.63,0,0,0,1.563.581,4.584,4.584,0,0,0,1.17.168,1.686,1.686,0,0,0,.978-.241.84.84,0,0,0,.34-.726.792.792,0,0,0-.15-.476,1.7,1.7,0,0,0-.44-.4,11.783,11.783,0,0,0-1.183-.617,5.552,5.552,0,0,1-1.254-.756,2.753,2.753,0,0,1-.668-.844,2.621,2.621,0,0,1,.57-3.025,3.408,3.408,0,0,1,2.269-.694,5.415,5.415,0,0,1,1.356.168,9.544,9.544,0,0,1,1.353.475l-.624,1.5a9.342,9.342,0,0,0-1.209-.419,4,4,0,0,0-.939-.118,1.243,1.243,0,0,0-.842.256.841.841,0,0,0-.294.668.824.824,0,0,0,.12.446,1.309,1.309,0,0,0,.378.368,11.6,11.6,0,0,0,1.226.64,4.836,4.836,0,0,1,1.753,1.226,2.391,2.391,0,0,1,.475,1.506" transform="translate(-3.93 5.939)" fill="#0078ad"/>
        <path id="Path_1084" data-name="Path 1084" d="M59.121,119.636A4.956,4.956,0,0,1,58,123.119a4.867,4.867,0,0,1-6.442,0,4.972,4.972,0,0,1-1.122-3.494,4.908,4.908,0,0,1,1.126-3.482,4.215,4.215,0,0,1,3.231-1.2,4.156,4.156,0,0,1,3.217,1.209,4.965,4.965,0,0,1,1.114,3.484m-6.66,0a3.814,3.814,0,0,0,.581,2.3,2.033,2.033,0,0,0,1.735.775q2.314,0,2.315-3.079t-2.3-3.083a2.044,2.044,0,0,0-1.742.777,3.78,3.78,0,0,0-.587,2.305" transform="translate(-2.055 5.937)" fill="#0078ad"/>
        <path id="Path_1085" data-name="Path 1085" d="M59.247,124.179v-9.127h1.936v7.529h3.7v1.6Z" transform="translate(0.605 5.97)" fill="#0078ad"/>
        <rect id="Rectangle_173" data-name="Rectangle 173" width="1.936" height="9.127" transform="translate(67.969 121.023)" fill="#0078ad"/>
        <path id="Path_1086" data-name="Path 1086" d="M73.284,124.179l-2.2-7.158H71.03c.079,1.454.12,2.428.12,2.913v4.245H69.42v-9.127h2.635l2.16,6.98h.038l2.291-6.98h2.633v9.127h-1.8v-4.319c0-.2,0-.439.009-.706s.034-.974.083-2.123h-.057l-2.352,7.148Z" transform="translate(3.675 5.97)" fill="#0078ad"/>
        <path id="Path_1087" data-name="Path 1087" d="M85.22,124.188l-.663-2.173H81.232l-.661,2.173H78.485l3.221-9.163h2.367l3.232,9.163Zm-1.123-3.8q-.918-2.95-1.034-3.339c-.077-.258-.131-.462-.165-.612q-.207.8-1.179,3.951Z" transform="translate(6.41 5.962)" fill="#0078ad"/>
        <path id="Path_1088" data-name="Path 1088" d="M94.925,124.179H92.466l-3.969-6.9h-.057q.119,1.832.118,2.609v4.295H86.829v-9.127h2.439l3.965,6.837h.043q-.094-1.779-.094-2.516v-4.321h1.742Z" transform="translate(8.928 5.97)" fill="#0078ad"/>
        <path id="Path_1089" data-name="Path 1089" d="M66.957,26.131c-.117.319.065,1.175,1.975,2.166.5-1.151.185-2.269-.717-2.6a1.008,1.008,0,0,0-1.257.431m-4.343,3.75a7.894,7.894,0,0,0,5.4-.568c-1.976-.9-2.35-2.088-1.98-3.106a2.6,2.6,0,0,1,3.123-1.528c1.221.444,1.425,1.735,1,2.9a5.673,5.673,0,0,1-1.224,2.006,5.577,5.577,0,0,1-4.6,1.651,3.661,3.661,0,0,1-.568-.158,4.212,4.212,0,0,1-.971-.633Z" transform="translate(1.621 -21.336)" fill="#fff"/>
      </g>
    </g>
  </g>
</svg>
