<svg id="map-icon" xmlns="http://www.w3.org/2000/svg" width="217.946" height="220.193" viewBox="0 0 217.946 220.193">
  <rect id="Rectangle_142" data-name="Rectangle 142" width="217.946" height="220.193" fill="#302f63"/>
  <g id="Group_66" data-name="Group 66" transform="translate(39.74 35.822)">
    <path id="Path_419" data-name="Path 419" d="M428.355,60.368a3.326,3.326,0,0,0-2.969-.462l-41.9,13.723-18.783-6.262-2.087,6.269,17.558,5.853v79.228l-42.937-11.078V129.952h-6.606V147.84L297.606,159.2V100.226H291v63.606a3.305,3.305,0,0,0,4.376,3.124l38.7-13.314,48.582,12.534a3.368,3.368,0,0,0,1.985-.1l42.937-16.088a3.309,3.309,0,0,0,2.143-3.095V63.043A3.3,3.3,0,0,0,428.355,60.368ZM423.113,144.6l-36.331,13.614V79.5l36.331-11.9Z" transform="translate(-291 -30.867)" fill="#fff"/>
    <path id="Path_420" data-name="Path 420" d="M320.864,137.825a3.3,3.3,0,0,0,6.328,0c3.227-10.737,9.41-17.581,15.388-24.2,7.445-8.237,14.476-16.015,14.476-29.6C357.057,66.434,341.622,51,324.028,51S291,66.434,291,84.028c0,13.585,7.032,21.363,14.476,29.6C311.454,120.244,317.637,127.087,320.864,137.825Zm3.164-80.219c13.829,0,26.423,12.594,26.423,26.423,0,11.041-5.919,17.588-12.769,25.171-4.683,5.179-9.842,10.886-13.654,18.658-3.812-7.772-8.97-13.479-13.654-18.658-6.85-7.583-12.769-14.13-12.769-25.171C297.606,70.2,310.2,57.606,324.028,57.606Z" transform="translate(-291 -51)" fill="#fff"/>
    <path id="Path_421" data-name="Path 421" d="M310.224,83.34a13.17,13.17,0,1,0-13.248-13.172A13.227,13.227,0,0,0,310.224,83.34Zm0-19.734a6.565,6.565,0,1,1-6.642,6.563A6.615,6.615,0,0,1,310.224,63.606Z" transform="translate(-277.238 -37.183)" fill="#fff"/>
  </g>
</svg>
