<svg id="name" xmlns="http://www.w3.org/2000/svg" xmlns:xlink="http://www.w3.org/1999/xlink" width="363.4" height="46.692" viewBox="0 0 363.4 46.692">
  <defs>
    <clipPath id="clip-path">
      <rect id="Rectangle_174" data-name="Rectangle 174" width="363.4" height="46.692" fill="none"/>
    </clipPath>
  </defs>
  <g id="Group_102" data-name="Group 102" transform="translate(0 0)" clip-path="url(#clip-path)">
    <path id="Path_1090" data-name="Path 1090" d="M101.977,5.714V21.176a38.225,38.225,0,0,1-1.013,9.647A14.578,14.578,0,0,1,98.146,36.5a8.46,8.46,0,0,1-4.1,2.689,18.732,18.732,0,0,1-5.022.659L86.913,34.7a10.135,10.135,0,0,0,3.568-.571,5.719,5.719,0,0,0,2.687-2.16,12.008,12.008,0,0,0,1.674-4.185,32.133,32.133,0,0,0,.571-6.828V7.037Z" transform="translate(104.03 6.839)" fill="#1c2351"/>
    <path id="Path_1091" data-name="Path 1091" d="M102.676.1V33.667l-6.521,1.408V1.466Z" transform="translate(115.092 0.119)" fill="#1c2351"/>
    <path id="Path_1092" data-name="Path 1092" d="M134.422,22.233v6.123H101.209l2.377-5.462h24.362v-.881c0-3.878-1.1-6.652-3.216-8.326-2.116-1.63-5.022-2.467-8.722-2.467a31.338,31.338,0,0,0-4.581.31,18.58,18.58,0,0,0-4.229,1.145l1.672-6.035c1.015-.22,2.116-.439,3.438-.661a35.791,35.791,0,0,1,4.756-.264,28.281,28.281,0,0,1,7.268.881,13.942,13.942,0,0,1,5.464,2.95,13.271,13.271,0,0,1,3.436,5.154,21.127,21.127,0,0,1,1.189,7.533" transform="translate(121.141 6.839)" fill="#1c2351"/>
    <path id="Path_1093" data-name="Path 1093" d="M136.751,29.248S124.2,31.142,124.2,23.611c0-7.975,12.556-4.671,12.556-4.671l.044,8.854c0,.486,0,1.015-.044,1.454M215.2,12.553v17.18h-9.032c-4.361,0-7.443-1.1-9.249-3.348s-2.731-5.506-2.731-9.869V0l-6.521,1.364V16.429l.044.088h-.044a30.374,30.374,0,0,0,.925,8.019,10.25,10.25,0,0,1-5.154,4.007,23.29,23.29,0,0,1-7.753,1.191H149.656a1.8,1.8,0,0,0-.483-.044h-5.9c.044-.529.044-1.1.044-1.674v-13.7l-1.189-.088-.222-.044c-2.377-.573-23.611-5.33-23.611,9.249,0,10.706,10.616,12.026,17.753,11.718a11.282,11.282,0,0,1-1.542,3.656,5.719,5.719,0,0,1-2.687,2.16,10.143,10.143,0,0,1-3.568.571l2.113,5.154a18.732,18.732,0,0,0,5.022-.659,8.08,8.08,0,0,0,4.1-2.689,14.578,14.578,0,0,0,2.819-5.681,17.953,17.953,0,0,0,.527-2.511h4.495c.088,0,.22.044.352.044h28.147a22.039,22.039,0,0,0,8.063-1.542,13.491,13.491,0,0,0,5.637-4.273l-.088-2.95A10.442,10.442,0,0,0,190.49,28.9c.178.308.4.615.617.925a2.136,2.136,0,0,0,.483.615c0,.09.046.134.134.178a11.268,11.268,0,0,0,4.449,3.082,24.723,24.723,0,0,0,9.117,1.5h10.44l6.081-1.279V11.143Z" transform="translate(141.588 0)" fill="#1c2351"/>
    <path id="Path_1094" data-name="Path 1094" d="M143.584,5.126c-.2.538.11,1.984,3.333,3.656.846-1.942.312-3.829-1.21-4.383a1.7,1.7,0,0,0-2.122.727m-7.329,6.329c2.667.914,7.54.187,9.122-.958-3.335-1.518-3.965-3.524-3.342-5.242a4.384,4.384,0,0,1,5.27-2.579c2.061.749,2.406,2.929,1.692,4.89a9.574,9.574,0,0,1-2.065,3.385c-1.927,2.019-5.455,3.32-7.76,2.786a6.18,6.18,0,0,1-.958-.266,7.11,7.11,0,0,1-1.639-1.068Z" transform="translate(163.089 2.968)" fill="#1c2351"/>
    <path id="Path_1095" data-name="Path 1095" d="M19.078,26.447a3.868,3.868,0,0,1-.942,1.608,4.812,4.812,0,0,1-1.8,1.125,8.267,8.267,0,0,1-2.865.422H7.254V20h6.165a10.492,10.492,0,0,1,2.77.314,4.749,4.749,0,0,1,1.823.907,3.385,3.385,0,0,1,1.017,1.439,5.48,5.48,0,0,1,.314,1.909,6.672,6.672,0,0,1-.266,1.874M7.254,5.591h5.2a11.97,11.97,0,0,1,2.634.255,4.733,4.733,0,0,1,1.839.808A3.287,3.287,0,0,1,18,8.131a6.212,6.212,0,0,1,.352,2.223,5.139,5.139,0,0,1-.424,2.19,3.6,3.6,0,0,1-1.219,1.461,5.437,5.437,0,0,1-1.984.811,13.03,13.03,0,0,1-2.709.253H7.254ZM19.513,17.029a11.6,11.6,0,0,0,2.757-1.353,8.026,8.026,0,0,0,1.9-1.777,6.829,6.829,0,0,0,1.09-2.091,7.712,7.712,0,0,0,.352-2.322,10.075,10.075,0,0,0-.725-3.893A7.2,7.2,0,0,0,22.571,2.63,11.411,11.411,0,0,0,18.485.743,23.83,23.83,0,0,0,12.454.077H0V35.164H13.588a17.762,17.762,0,0,0,5.528-.787,11.772,11.772,0,0,0,4.049-2.188,9.321,9.321,0,0,0,2.5-3.313,9.947,9.947,0,0,0,.859-4.135,7.125,7.125,0,0,0-1.718-4.956,10,10,0,0,0-5.295-2.757" transform="translate(0 0.092)" fill="#1c2351"/>
    <path id="Path_1096" data-name="Path 1096" d="M38.39,14.438a6.88,6.88,0,0,1,1.764-3.869A5.066,5.066,0,0,1,43.9,9.215a5.247,5.247,0,0,1,2.2.422,4.283,4.283,0,0,1,1.522,1.149,4.57,4.57,0,0,1,.883,1.67,6.923,6.923,0,0,1,.279,1.982ZM51.677,7.5a9.779,9.779,0,0,0-3.482-2.212,12.411,12.411,0,0,0-4.411-.76A12.611,12.611,0,0,0,38.7,5.5a11.243,11.243,0,0,0-6.226,6.564,13.671,13.671,0,0,0-.835,4.789,15.866,15.866,0,0,0,.969,5.778,11.877,11.877,0,0,0,2.647,4.172,11.055,11.055,0,0,0,3.941,2.54,13.629,13.629,0,0,0,4.871.857,21.13,21.13,0,0,0,2.709-.18,14.194,14.194,0,0,0,2.781-.655,12.6,12.6,0,0,0,2.66-1.281,10.6,10.6,0,0,0,2.346-2.043l-1.936-2.417a1.423,1.423,0,0,0-1.208-.582,2.609,2.609,0,0,0-1.224.327c-.409.217-.87.459-1.377.725a11.466,11.466,0,0,1-1.764.725,7.739,7.739,0,0,1-2.381.327,6.065,6.065,0,0,1-4.389-1.619A7.88,7.88,0,0,1,38.293,18.4H53.237a2.137,2.137,0,0,0,.751-.11.864.864,0,0,0,.457-.4,2.2,2.2,0,0,0,.244-.773,8.646,8.646,0,0,0,.07-1.235,13.459,13.459,0,0,0-.808-4.822A9.964,9.964,0,0,0,51.677,7.5" transform="translate(37.875 5.416)" fill="#1c2351"/>
    <path id="Path_1097" data-name="Path 1097" d="M67.753,22.59a10.567,10.567,0,0,1-2.08,3.737,8.9,8.9,0,0,1-3.3,2.344,11.389,11.389,0,0,1-4.414.811H51.768V5.761h6.191a11.268,11.268,0,0,1,4.414.822,9.078,9.078,0,0,1,3.3,2.344,10.468,10.468,0,0,1,2.08,3.724,15.8,15.8,0,0,1,.725,4.958,15.869,15.869,0,0,1-.725,4.98M70.98,5.023a16.6,16.6,0,0,0-5.67-3.638A19.846,19.846,0,0,0,57.959.078H44.465V35.163H57.959a19.891,19.891,0,0,0,7.351-1.3,16.668,16.668,0,0,0,5.67-3.627,16.054,16.054,0,0,0,3.651-5.549,18.822,18.822,0,0,0,1.294-7.072,18.663,18.663,0,0,0-1.294-7.037A16.221,16.221,0,0,0,70.98,5.023" transform="translate(53.222 0.093)" fill="#1c2351"/>
    <path id="Path_1098" data-name="Path 1098" d="M74.779,23.342a8.748,8.748,0,0,1-2.43,1.85,6.552,6.552,0,0,1-2.889.591,3.714,3.714,0,0,1-2.263-.6,2.4,2.4,0,0,1-.808-2.054,2.408,2.408,0,0,1,.4-1.342,3.363,3.363,0,0,1,1.353-1.1,9.785,9.785,0,0,1,2.575-.787,31.2,31.2,0,0,1,4.062-.422ZM78.758,7.225a8.52,8.52,0,0,0-2.975-2.019A10.334,10.334,0,0,0,71.8,4.481a16.482,16.482,0,0,0-5.754.98,14.878,14.878,0,0,0-4.86,2.961l1.184,2.127a3.192,3.192,0,0,0,.787.835,1.91,1.91,0,0,0,1.171.352,2.912,2.912,0,0,0,1.4-.327c.4-.217.835-.45,1.292-.7a11.21,11.21,0,0,1,1.61-.7,6.923,6.923,0,0,1,2.3-.327,3.644,3.644,0,0,1,2.854,1.1,5.051,5.051,0,0,1,.991,3.445v1.283a31.846,31.846,0,0,0-7.12.833A15.241,15.241,0,0,0,63.111,18.2a6.8,6.8,0,0,0-2.406,2.5,6.049,6.049,0,0,0-.7,2.757,7.648,7.648,0,0,0,.532,2.948,5.721,5.721,0,0,0,1.511,2.142,6.548,6.548,0,0,0,2.335,1.292,9.754,9.754,0,0,0,3,.437,12.16,12.16,0,0,0,2.406-.22,9.547,9.547,0,0,0,2.019-.639,10.6,10.6,0,0,0,1.826-1.052c.5-.354,1.019-.78,1.547-1.228v3.3l6.107-1.276V14.224a11.361,11.361,0,0,0-.652-3.917,8.9,8.9,0,0,0-1.874-3.082" transform="translate(71.822 5.363)" fill="#1c2351"/>
    <path id="Path_1099" data-name="Path 1099" d="M84.69,4.894a5.643,5.643,0,0,0-3.627,1.232A11.184,11.184,0,0,0,78.33,9.488l-.288-5.354L72.218,5.377h-.149V30.416l6.683-1.4V19.93h-.011V15.051a11.383,11.383,0,0,1,.835-1.6,5.465,5.465,0,0,1,1-1.184,4.093,4.093,0,0,1,1.27-.749,4.634,4.634,0,0,1,1.632-.266,9.162,9.162,0,0,1,1.353.108,8.143,8.143,0,0,0,1.112.11,1.168,1.168,0,0,0,.69-.182,1.123,1.123,0,0,0,.376-.663l.433-4.934a4.474,4.474,0,0,0-2.755-.8" transform="translate(86.262 4.948)" fill="#1c2351"/>
    <path id="Path_1100" data-name="Path 1100" d="M14.238,11.111V35.152l6.545-1.4V.179l-6.545,1.4Z" transform="translate(17.042 0.214)" fill="#1c2351"/>
    <path id="Path_1101" data-name="Path 1101" d="M35.121,5.52h0V23.438a9.6,9.6,0,0,1-2.344,1.681,5.816,5.816,0,0,1-2.636.617A3.487,3.487,0,0,1,27.3,24.587a4.911,4.911,0,0,1-.956-3.229V4.015L19.668,5.439V21.358a12.472,12.472,0,0,0,.558,3.82,8.676,8.676,0,0,0,1.619,3,7.255,7.255,0,0,0,2.647,1.96,8.879,8.879,0,0,0,3.616.7,10.239,10.239,0,0,0,2.285-.242,9.432,9.432,0,0,0,1.957-.677,9.912,9.912,0,0,0,1.7-1.041c.367-.277.716-.6,1.066-.914V31L41.793,29.6V4.015L35.121,5.439Z" transform="translate(23.541 4.806)" fill="#1c2351"/>
    <path id="Path_1102" data-name="Path 1102" d="M164.367,20.685a2.976,2.976,0,0,1-.881,2.116,2.831,2.831,0,0,1-2.069.835,2.859,2.859,0,0,1-2.955-2.95,2.826,2.826,0,0,1,.837-2.07,2.968,2.968,0,0,1,2.118-.881,3.01,3.01,0,0,1,2.95,2.95" transform="translate(189.67 21.228)" fill="#1c2351"/>
  </g>
</svg>
