<svg xmlns="http://www.w3.org/2000/svg" xmlns:xlink="http://www.w3.org/1999/xlink" width="1920" height="117.522" viewBox="0 0 1920 117.522">
  <defs>
    <clipPath id="clip-path">
      <rect id="Rectangle_4" data-name="Rectangle 4" width="1920" height="117.522" transform="translate(0 1751.422)" fill="none"/>
    </clipPath>
  </defs>
  <g id="Group_17" data-name="Group 17" transform="translate(0 -1751.422)">
    <g id="Group_3" data-name="Group 3">
      <g id="Group_2" data-name="Group 2" clip-path="url(#clip-path)">
        <path id="Path_3" data-name="Path 3" d="M1782.5,1603.608c-148.419,187.2-280.092,200.075-528.534,287.783-7.537,2.676-14.861,5.328-22.142,8m296.388,0c122.808-64.994,210.861-150.373,271.548-244.521M-48.183,1659.24c47.379,115.7,148.9,233.888,355.264,233.888,184.737,0,259.654-130.075,259.654-130.075s5.085,68.769,27.473,136.341M552.354,1645.9s-77.3,138.995-279.491,138.995c-135.635,0-244.566-63.409-297.844-163.683m677.82,278.183C614.1,1856.99,601,1754.532,591.606,1638.27m212.1,261.124c14.626-50.562,34.689-96.671,95.1-96.671a21.426,21.426,0,0,1,12.827,4.389s10.022-132.836-1.542-132.836c-18.223,0-56.96,27.666-92.614,27.666s-47.207-15.919-47.207-15.919m-29-31.343c0,139.823,42.591,151.742,42.591,151.742s-15.718,60.087-48.5,92.972m464.788-335.58c7.474,84.182,27.046,238.87,131.652,238.87,61.843,0,86.062-49.064,99.746-85.725,8.158-21.841,16.231-39.271,16.231-39.271M1066.089,1886.2c10.643-17.074,18.694-32.1,18.694-32.1s24.8,18.325,43.812,32.1m31.649,0c5.74-9.243,13.085-21.14,20-30.858,13.3-18.756,32.141-36.294,32.141-44.889,0-8.619-71.157-59.656-77.668-59.656s-53.362,85.789-53.362,85.789-55.42-53.518-64.306-53.518c-12.313,0-62.613,94.417-62.613,94.417a74.448,74.448,0,0,1,10.834,8.715" fill="none" stroke="#929498" stroke-linecap="round" stroke-width="1.636"/>
        <path id="Path_4" data-name="Path 4" d="M1843.8,1857.917c4.34,0,21.417-16.481,38.548-34.958,17.2-18.54,34.839-35.818,34.839-39.7,0-19.834-24.882-41.966-49.765-62.729-38.159-31.822-39.5-39.9-47.217-39.9-11.542,0-62.6,93.415-62.6,93.415s34.1,30.671,66.45,62.008C1838.482,1850.036,1839.041,1857.917,1843.8,1857.917Z" fill="none" stroke="#929498" stroke-linecap="round" stroke-width="1.636"/>
      </g>
    </g>
  </g>
</svg>
