<svg xmlns="http://www.w3.org/2000/svg" width="91.198" height="91.198" viewBox="0 0 91.198 91.198">
  <g id="Group_44" data-name="Group 44" transform="translate(-447.331 -277.896)">
    <g id="Group_43" data-name="Group 43" transform="translate(447.331 277.896)">
      <path id="Path_383" data-name="Path 383" d="M0,0H91.2V91.2H0Z" transform="translate(0)" fill="#038bbe"/>
      <path id="Path_375" data-name="Path 375" d="M581.027,403.426a.313.313,0,0,1,.314-.315.309.309,0,0,1,.314.315.314.314,0,0,1-.314.32.31.31,0,0,1-.314-.32m1.192-.315a.313.313,0,0,1,.314.315.317.317,0,0,1-.314.32.317.317,0,0,1,0-.634m1.5,2.663a9.577,9.577,0,0,1-.094,1.3h-.884c-.563,0-.872-.142-1-.475a.835.835,0,0,1-.836.522.774.774,0,0,1-.836-.522.74.74,0,0,1-.8.475H578.5v.03c0,.842-.308,1.494-1.376,1.494a2.481,2.481,0,0,1-.617-.083l.065-.451a1.7,1.7,0,0,0,.594.1c.492,0,.788-.237.788-1.014v-2.865h.546v2.355h.777c.421,0,.611-.19.611-.831v-1.169h.546v1.216c0,.51.119.824.558.824s.551-.32.551-.824V404.41h.528v1.43c0,.617.154.807.783.807h.272a8.136,8.136,0,0,0,.048-.825,6.563,6.563,0,0,0-.2-1.636l.534-.1a6.712,6.712,0,0,1,.207,1.684m-2.241-3.036a.3.3,0,1,1,.6,0,.3.3,0,1,1-.6,0m-8.892,3.908h-.522c-.765,0-1.079-.333-1.079-1.008a.872.872,0,0,1,.883-.979,1.837,1.837,0,0,1,.718.137Zm1.453-2.029a1.879,1.879,0,0,1,1.554,2.029H573.12v-2.212a3.7,3.7,0,0,0-1.192-.208,1.389,1.389,0,0,0-1.495,1.47c0,.842.415,1.382,1.554,1.382h4.146v-.3a2.268,2.268,0,0,0-1.459-2.432l1.613-.99V402.8l-2.248,1.411Zm-2.912-1.192a.314.314,0,1,1,.628,0,.317.317,0,0,1-.314.32.31.31,0,0,1-.314-.32m.872,0a.318.318,0,0,1,.32-.315.307.307,0,0,1,.308.315.314.314,0,1,1-.628,0m-4.389-.528h.546v4.181h-.546Zm-12.973,3.749h-.67c-.718,0-1-.3-1-.926,0-.664.332-1.062.86-1.062s.813.3.813,1.062Zm11.3,0h-1.406c.024-.291.042-.605.042-.872a6.71,6.71,0,0,0-.208-1.684l-.533.1a6.611,6.611,0,0,1,.2,1.636c0,.22-.018.57-.047.825h-.273c-.628,0-.783-.19-.783-.807v-1.43H562.4v1.453c0,.5-.124.824-.551.824s-.558-.314-.558-.824v-1.216h-.546v1.169c0,.641-.189.831-.611.831h-.771V402.9h-.546v3.749h-1.4v-2.355h-.546v2.355h-1.7v-1.014c0-.908-.415-1.406-1.3-1.406a1.406,1.406,0,0,0-1.447,1.548c0,.7-.219.872-.522.872h-.676V402.9h-.546v4.181h1.2a.79.79,0,0,0,.789-.5c.185.32.552.5,1.234.5h6.228a.74.74,0,0,0,.8-.475.774.774,0,0,0,.836.522.835.835,0,0,0,.836-.522c.125.333.433.475,1,.475h2.889V402.9h-.546Zm-8.571,1.316a.315.315,0,1,1-.629,0,.318.318,0,0,1,.321-.314.308.308,0,0,1,.308.314m-.872,0a.318.318,0,0,1-.314.32.317.317,0,1,1,.314-.32m-8.749-3.416a.323.323,0,1,1,.32.32.319.319,0,0,1-.32-.32m1.3-.255h.546v2.485c0,1.115-.533,1.673-1.565,1.673-.818,0-1.477-.438-1.477-1.654a4.379,4.379,0,0,1,.148-1.127l.563-.107a4.3,4.3,0,0,0-.167,1.18c0,1.014.517,1.275.985,1.275.563,0,.966-.3.966-1.2Zm-5.4-1.393h.546v4.181h-.546Zm-3.981,3.185a4.415,4.415,0,0,0-1.287-.985,2.3,2.3,0,0,1,1.145-.474c.456,0,.658.261.658.581a1.138,1.138,0,0,1-.516.878m-3.985.564c-.534,0-.831-.357-.831-1.014a.852.852,0,0,1,.836-.973c.546,0,.819.356.819.979,0,.693-.38,1.008-.824,1.008m6.293,0h-1.1a1.46,1.46,0,0,1-.854-.286,1.619,1.619,0,0,0,.712-1.227c0-.48-.338-.919-1.145-.919a3.148,3.148,0,0,0-1.714.712l-.048.38a3.85,3.85,0,0,1,1.423,1.032,3.913,3.913,0,0,1-1.619.309h-.516c-.213,0-.516.018-.516.018a1.315,1.315,0,0,0,.462-1.062,1.214,1.214,0,0,0-1.322-1.376,1.379,1.379,0,0,0-1.436,1.447,1.166,1.166,0,0,0,.392.991s-.22-.018-.422-.018h-.908V402.9h-.546v4.181h4.763a4.333,4.333,0,0,0,2.011-.438,1.873,1.873,0,0,0,1.2.438h1.727V402.9h-.546Zm-7.023-3.221a.314.314,0,1,1,.628,0,.317.317,0,0,1-.314.32.31.31,0,0,1-.314-.32m.872,0a.318.318,0,0,1,.32-.315.308.308,0,0,1,.309.315.315.315,0,1,1-.629,0m-4.632.866h.546v2.817c0,.842-.309,1.494-1.376,1.494a2.478,2.478,0,0,1-.617-.083l.065-.451a1.7,1.7,0,0,0,.593.1c.492,0,.789-.237.789-1.014Zm-2.444,3.671a.318.318,0,0,1-.314.32.317.317,0,1,1,.314-.32m.872,0a.315.315,0,1,1-.629,0,.317.317,0,0,1,.32-.314.308.308,0,0,1,.309.314m-2.794-1.316h-.522c-.765,0-1.079-.333-1.079-1.008a.872.872,0,0,1,.883-.979,1.839,1.839,0,0,1,.718.137Zm2.3,0h-1.762v-2.212a3.7,3.7,0,0,0-1.192-.208,1.389,1.389,0,0,0-1.494,1.47c0,.842.415,1.382,1.554,1.382h3.44v-2.787h-.546Zm-2.883-3.221a.318.318,0,0,1,.32-.315.308.308,0,0,1,.309.315.315.315,0,1,1-.629,0m-.872,0a.314.314,0,1,1,.628,0,.317.317,0,0,1-.314.32.31.31,0,0,1-.314-.32m33.123-18.057s1.909,1.4,1.96,1.4.5-.806.9-1.365.964-1.081.964-1.337a8.937,8.937,0,0,0-2.33-1.776,18.324,18.324,0,0,0-1.6,2.555,12.263,12.263,0,0,0-1.93-1.594c-.37,0-1.878,2.766-1.878,2.766a17.533,17.533,0,0,0,2.063,1.759c.544,0,1.848-2.409,1.848-2.409m8.954-15.759c.842,0,.677-1.9.677-2.487,0-.879-.2-1.346-.323-1.346s.354,2.1-.6,2.1-1.709-1.429-1.709-3.256.908-4.877.815-5.042a15.93,15.93,0,0,0-1.2,5.138c0,1.827.308,4.891,2.341,4.891m-15.791-10.095c.973-.869,1.919-3.187,2.3-3.936.4-.783.878-2.185-.639-2.068a18.8,18.8,0,0,0-4.932.87,4.459,4.459,0,0,0-.294.9,16.1,16.1,0,0,0-.466,2.182c.073.1,3.405-.821,4.722-.821a.935.935,0,0,1,.406.072,9.462,9.462,0,0,1-1.63,1.475c-1.747,1.255-4.331,2.815-4.5,2.979-.1.1-.008.262-.008.262s4.373-1.32,5.034-1.91m-10.49,27.026c-.236,0-.4,1.759-.4,1.612,0,.271.777.432,1.485,1.039a3.63,3.63,0,0,1,1.215,2.845,3.559,3.559,0,0,1-.329,1.915,4.382,4.382,0,0,0,.975-3.042,4.291,4.291,0,0,0-.346-2,5.172,5.172,0,0,0-2.6-2.371M535.1,371.272c-.346,0-1.878,2.783-1.878,2.783s1.316,1.227,2.309,2.136c.318.29.093.46.315.46a8.2,8.2,0,0,0,1.118-1.139,7.71,7.71,0,0,0,1.046-1.183c0-.591-.747-1.25-1.494-1.868-1.145-.948-1.185-1.189-1.417-1.189m19.885-4.781a30.562,30.562,0,0,0,.8-4.788c-.075-.21-.556-.378-.678-.378-.917,0-3.927,1.408-5.8,6.484a81.888,81.888,0,0,1-4,9.4l.447,3.284a21.609,21.609,0,0,0,1.555-3.641c1.233-3.645,2.55-8.44,5.414-11.111a3.281,3.281,0,0,1,1.977-1.13c.461,0,.19,1.076.138,1.744-.01.132.175.137.154.137m23.265-14.1c-.185.027-.271,1.905-.363,4.317-.119,3.117-.068,7-.068,7a43.335,43.335,0,0,0-1.876-5.238c-2.268-5.179-3.128-6.778-3.374-6.751s-1.113,4.463-1.547,8.156a23.677,23.677,0,0,0,.023,5.783s.37-3.154.616-5.38.6-4.52.6-4.52,1.058,1.8,2.274,4.459a34.694,34.694,0,0,1,2.5,6.711c0,1.456-1.355,3.929-2.417,3.929-1.309,0-1.186-2.4-1.555-2.4-.415,0-.512,1.367-.544,2.569-.087,3.229-1.807,4.113-1.807,4.113s-.034-.326-.1-.7c-.089-.514-.215-1.122-.394-1.122s-.156.6-.11,1.2a4.82,4.82,0,0,1-.092,1.238,1.379,1.379,0,0,1-.552.92,8.667,8.667,0,0,1-1.452.87,8.524,8.524,0,0,1-.146-.887c-.073-.676-.139-1.49-.4-1.49-.98,0-1.158,3.917-3.764,3.917-3.331,0-2.379-6.4-3.747-16.214-2-14.379-4.769-17.414-4.769-17.414l-1.016,3.1a45.892,45.892,0,0,1,2.186,6.123A101.067,101.067,0,0,1,559.1,370.5c.294,2.813-1.706,4.706-2.756,4.706-1.555,0-.385-3.875-2.264-3.875s-4.4,4.534-4.4,7.708c0,4.165,1.277,4.52,1.277,4.52s-.893,3.393-2.786,3.393c-3.836,0-2.764-11.172-4.2-17.99-.916-4.348-2.036-5.49-2.036-5.49a12.3,12.3,0,0,0-.706,1.931c-.22.843-.264.9-.245,1.029a4.047,4.047,0,0,0,.243.594,21.924,21.924,0,0,1,1.468,4.472c.7,3.164,1.119,7.28,1.119,7.28s-2.32,4.14-8.386,4.14c-5.82,0-10.006-3.858-10.006-9.271s4.073-9.185,7.183-10.531,9.454-2.665,11.917-6.128c1.7-2.39,1.478-3.728,1.478-3.728a8.525,8.525,0,0,1-3.079,4.415c-2.555,1.929-9.647,3.327-13.088,5.8a13.006,13.006,0,0,0-5.173,10.277c0,3.233,1.807,12.393,11.794,12.393a9.01,9.01,0,0,0,7.791-3.875s.585,7.914,4.558,7.914c3.511,0,1.591-6.732,5.6-6.732a.647.647,0,0,1,.385.13s.3-3.957-.046-3.957c-.547,0-1.709.824-2.78.824a1.729,1.729,0,0,1-1.417-.474s1.5-5.331,3.426-5.331c1.034,0,.969,3.833,2.817,3.833,2.665,0,2.71-4.534,2.71-4.534s.123.644.207,1.582c.224,2.507.811,7.115,3.951,7.115,1.856,0,2.582-1.462,2.993-2.554.245-.65.486-1.169.486-1.169a2.755,2.755,0,0,1,.172.606c.1.605.225,1.448.729,1.448a4.313,4.313,0,0,0,2.035-1.322,3.715,3.715,0,0,0,.752-1.206.321.321,0,0,0,.2.069,3.612,3.612,0,0,0,1.813-2.492,13.091,13.091,0,0,0,.251-3.149c0-.974.172-1.072.172-1.072a6.732,6.732,0,0,1,.261.694c.248.787.7,1.962,1.638,1.962.52,0,2.094-.743,2.765-3.476a19.429,19.429,0,0,0,.355-4.41c0-3.014.7-9.361.7-9.361a17.281,17.281,0,0,1,3.541,10.735c0,3.893-1.216,7.467-1.97,8.505-4.8,6.611-8.769,6.872-16.675,9.643-9.269,3.248-12.5,6.772-12.5,11.606,0,2.734.57,2.9.57,2.9s.349,0,.349-.6-.236-.284-.236-1.658c0-1.459.472-6.263,13.529-9.553,8.777-2.212,13.681-7.052,16.123-12.381a23.263,23.263,0,0,0,2.045-9.656c0-9.26-5.23-14.386-5.5-14.347" transform="translate(-508.6 -331.431)" fill="#fff"/>
      <path id="Path_376" data-name="Path 376" d="M813.818,378.955h.2c.231,0,.417-.077.417-.263,0-.165-.121-.274-.384-.274a1,1,0,0,0-.231.022Zm-.011,1.02h-.417v-1.8a3.655,3.655,0,0,1,.691-.055,1.118,1.118,0,0,1,.626.132.5.5,0,0,1,.175.395.46.46,0,0,1-.372.416v.022a.529.529,0,0,1,.328.438,1.378,1.378,0,0,0,.132.449h-.45a1.6,1.6,0,0,1-.142-.438c-.033-.2-.143-.285-.372-.285h-.2Zm-1.107-.943a1.393,1.393,0,0,0,1.4,1.436,1.377,1.377,0,0,0,1.371-1.425,1.388,1.388,0,1,0-2.774-.011m3.235,0a1.848,1.848,0,1,1-1.843-1.8,1.807,1.807,0,0,1,1.843,1.8" transform="translate(-736.482 -356.611)" fill="#fff"/>
    </g>
  </g>
</svg>
